<?xml version="1.0" encoding="utf-8"?>
<!-- Generator: Adobe Illustrator 24.3.0, SVG Export Plug-In . SVG Version: 6.00 Build 0)  -->
<svg version="1.1" id="Layer_1" xmlns="http://www.w3.org/2000/svg" xmlns:xlink="http://www.w3.org/1999/xlink" x="0px" y="0px"
	 viewBox="0 0 500 500" style="enable-background:new 0 0 500 500;" xml:space="preserve">
<style type="text/css">
	.st0{fill:#EFEFEF;}
	.st1{fill:#7778F7;}
	.st2{fill:#4046B5;}
	.st3{fill:#FFFFFF;}
	.st4{fill:#EAEAEA;}
	.st5{fill:#009118;}
	.st6{fill:#FC1515;}
	.st7{fill:#E0E0E0;}
	.st8{fill:#00A651;}
	.st9{fill:#068C42;}
	.st10{fill:#FFCE00;}
	.st11{fill:#DDDDDD;}
	.st12{fill:#FF0000;}
	.st13{fill:none;stroke:#000000;stroke-width:2;stroke-miterlimit:10;}
	.st14{fill:none;stroke:#000000;stroke-miterlimit:10;}
	.st15{fill:none;stroke:#000000;stroke-width:2;stroke-linecap:round;stroke-miterlimit:10;}
	.st16{fill:none;stroke:#000000;stroke-width:2;stroke-linecap:round;stroke-miterlimit:10;stroke-dasharray:4.7778,4.7778;}
	.st17{fill:#FFFFFF;stroke:#000000;stroke-width:2;stroke-linecap:round;stroke-miterlimit:10;}
</style>
<g>
	<g>
		<path class="st0" d="M440.74,257.44c0,0,6.73-14.37-77.88-29.92l-7.14,58.53c0,0,29.24,3.5,41.78,8.19l3.03-24.88
			C400.53,269.35,439.11,268.64,440.74,257.44z"/>
	</g>
	<g>
		<path class="st1" d="M235.91,211.17c0,0-58.27-11.03-64.34-8.7c0,0-8.53,3.27-5.02,13.61c4.97,14.68,38.39,51.91,38.39,51.91
			s4.01,29.48-10.08,74.87l-0.91,3.94h81.18l25.99-65.03c0,0,36.82-21.43,50.12-31.84c8.83-6.92,15.25-17.36,5.99-21.49
			c-10.79-4.81-34.71-6.9-56.11-4.81l-3.69,12.86l26.98,3.1c0,0-23.29,7.12-34,11.53c-3.86,1.59-17.23,2.55-17.23,2.55l-1.76-4.95
			l-18.13,1.49l-13.63-6.17l-3.75,2.51l-19.49-5.82l-18.44-17.27l33.15,1.8L235.91,211.17z"/>
	</g>
	<g>
		<path d="M284.59,221.41c0,0-5.64-5.45-3.44-9.88c1.63-3.29,3.82-11.39,0.3-11.11c-9.38,0.74-37.42-7.39-31.33-21.89
			c5.32-10.08,22.83-0.42,37.75,12.63l2.36,3.18c0,0,14.78,1.04,3.91,17.28C294.14,211.62,291.26,217.5,284.59,221.41z"/>
	</g>
	<g>
		<path class="st2" d="M264.47,238.83c0,0-10.72,4.33-14.75,5.74c0.07-1.01-0.86-6.62,0.5-8.29
			C250.76,235.61,260.22,240.66,264.47,238.83z"/>
	</g>
	<g>
		<path d="M291.07,214.13c-0.03,0-0.05,0-0.08-0.01l-7.03-1.27c-0.24-0.04-0.4-0.27-0.36-0.51c0.04-0.24,0.27-0.4,0.51-0.36
			l7.03,1.27c0.24,0.04,0.4,0.27,0.36,0.51C291.47,213.98,291.29,214.13,291.07,214.13z"/>
	</g>
	<g>
		<path d="M288.99,216.32c-0.03,0-0.05,0-0.08-0.01l-5.4-0.97c-0.24-0.04-0.4-0.27-0.36-0.51c0.04-0.24,0.27-0.4,0.51-0.36l5.4,0.97
			c0.24,0.04,0.4,0.27,0.36,0.51C289.39,216.16,289.2,216.32,288.99,216.32z"/>
	</g>
	<g>
		<path d="M284.52,230.89c-1.15,0-2.79-0.53-4.52-2.84c-0.15-0.2-0.11-0.47,0.09-0.62c0.2-0.15,0.47-0.11,0.62,0.09
			c1.52,2.03,3.24,2.88,4.73,2.33c1.25-0.46,2.11-1.89,2.01-3.31c-0.12-1.66-1.44-2.88-3.61-3.36c-0.29-0.06-0.48-0.31-0.48-0.6
			c0.01-0.29,0.21-0.52,0.49-0.57c0.24-0.04,0.47,0.12,0.51,0.36c0,0.01,0,0.02,0,0.03c2.35,0.62,3.82,2.12,3.96,4.08
			c0.13,1.83-0.95,3.6-2.58,4.2C285.47,230.78,285.04,230.89,284.52,230.89z"/>
	</g>
	<g>
		<path d="M271.68,247.57c-0.03,0-0.06,0-0.1-0.01c-0.24-0.05-0.39-0.29-0.34-0.53c3.36-14.96,7.23-17.27,7.39-17.36
			c0.21-0.12,0.48-0.04,0.6,0.17c0.12,0.21,0.04,0.48-0.17,0.6c-0.07,0.04-3.74,2.43-6.96,16.79
			C272.07,247.43,271.88,247.57,271.68,247.57z"/>
	</g>
	<g>
		<path d="M249.96,246.64c-0.2,0-0.38-0.14-0.43-0.34c-1.85-7.62,0.27-10.21,0.36-10.31c0.16-0.19,0.44-0.21,0.62-0.05
			c0.19,0.16,0.21,0.44,0.05,0.62c-0.02,0.02-1.9,2.43-0.17,9.53c0.06,0.24-0.09,0.48-0.33,0.53
			C250.03,246.63,249.99,246.64,249.96,246.64z"/>
	</g>
	<g>
		<path d="M269.99,217.12c-0.06,0-0.12-0.01-0.18-0.02c-0.27-0.05-0.51-0.2-0.67-0.43c-0.16-0.23-0.22-0.5-0.17-0.77
			c0.05-0.27,0.2-0.51,0.43-0.66c0.23-0.16,0.5-0.22,0.77-0.17c0.56,0.1,0.93,0.64,0.83,1.2
			C270.92,216.77,270.48,217.12,269.99,217.12z M269.99,215.94c-0.04,0-0.07,0.02-0.08,0.03c-0.02,0.01-0.05,0.04-0.06,0.09v0
			c-0.01,0.05,0.01,0.09,0.02,0.11c0.01,0.02,0.04,0.05,0.09,0.06c0.08,0.02,0.16-0.04,0.17-0.12c0.01-0.08-0.04-0.16-0.12-0.17
			C270.01,215.94,270,215.94,269.99,215.94z M269.41,215.98L269.41,215.98L269.41,215.98z"/>
	</g>
	<g>
		<path d="M256.19,211.61c-0.06,0-0.12-0.01-0.18-0.02c-0.27-0.05-0.51-0.2-0.67-0.43s-0.22-0.5-0.17-0.77s0.2-0.51,0.43-0.66
			c0.23-0.16,0.5-0.22,0.77-0.17c0.56,0.1,0.93,0.64,0.83,1.2C257.11,211.26,256.68,211.61,256.19,211.61z M256.19,210.43
			c-0.04,0-0.07,0.02-0.08,0.03c-0.02,0.01-0.05,0.04-0.06,0.09v0c-0.01,0.05,0.01,0.09,0.02,0.11c0.01,0.02,0.04,0.05,0.09,0.06
			c0.08,0.02,0.16-0.04,0.17-0.12c0.01-0.08-0.04-0.16-0.12-0.17C256.2,210.43,256.19,210.43,256.19,210.43z M255.61,210.48
			L255.61,210.48L255.61,210.48z"/>
	</g>
	<g>
		<path d="M261.27,225.69c-0.02,0-0.05,0-0.07-0.01c-2.69-0.42-4.27-1.38-4.69-2.84c-0.83-2.85,3.2-6.43,3.38-6.58
			c0.18-0.16,0.46-0.14,0.62,0.04c0.16,0.18,0.14,0.46-0.04,0.62c-1.05,0.93-3.67,3.75-3.11,5.67c0.32,1.1,1.66,1.85,3.98,2.21
			c0.24,0.04,0.41,0.26,0.37,0.51C261.67,225.54,261.48,225.69,261.27,225.69z"/>
	</g>
	<g>
		<path d="M263.74,239.24c-1.09,0-2.19-0.05-3.29-0.15c-0.24-0.02-0.42-0.24-0.4-0.48c0.02-0.24,0.23-0.42,0.48-0.4
			c3.46,0.31,6.87,0.12,10.12-0.56c0.24-0.05,0.47,0.1,0.52,0.34c0.05,0.24-0.1,0.47-0.34,0.52
			C268.53,238.99,266.15,239.24,263.74,239.24z"/>
	</g>
	<g>
		<path d="M260.49,239.09c-0.01,0-0.03,0-0.04,0c-8.24-0.74-15.21-4.15-16.59-8.13c-1.75-5.06,9.55-36.89,10.03-38.24
			c0.08-0.23,0.33-0.35,0.57-0.27c0.23,0.08,0.35,0.34,0.27,0.57c-4.05,11.35-11.35,33.83-10.03,37.65
			c1.24,3.6,8.05,6.84,15.83,7.53c0.24,0.02,0.42,0.24,0.4,0.48C260.91,238.92,260.72,239.09,260.49,239.09z"/>
	</g>
	<g>
		<path class="st3" d="M260.46,192.94c-0.02,0-0.04,0-0.06-0.01c-0.24-0.07-5.93-1.83-7.98-6.26c-1.02-2.21-0.94-4.7,0.25-7.4
			c0.05-0.11,0.18-0.16,0.29-0.11c0.11,0.05,0.16,0.18,0.11,0.29c-1.13,2.58-1.22,4.94-0.25,7.04c1.96,4.25,7.65,6.01,7.7,6.03
			c0.12,0.04,0.18,0.16,0.15,0.28C260.64,192.88,260.55,192.94,260.46,192.94z"/>
	</g>
	<g>
		<path class="st3" d="M288.59,215.73c-0.06,0-0.13-0.03-0.17-0.08c-0.08-0.09-0.07-0.23,0.03-0.31c4.66-3.94,6.92-10.77,6.94-10.83
			c0.04-0.12,0.16-0.18,0.28-0.14c0.12,0.04,0.18,0.16,0.14,0.28c-0.02,0.07-2.32,7.01-7.08,11.04
			C288.69,215.71,288.64,215.73,288.59,215.73z"/>
	</g>
	<g>
		<path class="st3" d="M273.53,195.3c-0.02,0-0.03,0-0.05-0.01c-0.78-0.17-19.22-4.32-18.86-10.59c0.01-0.12,0.1-0.22,0.23-0.21
			c0.12,0.01,0.22,0.11,0.21,0.23c-0.34,5.89,18.33,10.09,18.51,10.13c0.12,0.03,0.19,0.14,0.17,0.26
			C273.72,195.23,273.63,195.3,273.53,195.3z"/>
	</g>
	<g>
		<path d="M272.5,254.27c-0.22,0-0.4-0.16-0.44-0.38c-0.04-0.24,0.13-0.47,0.37-0.5l17.86-2.7c1.98-0.88,33.15-14.62,45.77-13.05
			c0.24,0.03,0.42,0.25,0.38,0.49c-0.03,0.24-0.25,0.42-0.49,0.38c-12.51-1.55-45.03,12.86-45.36,13.01l-0.11,0.03l-17.92,2.71
			C272.55,254.27,272.52,254.27,272.5,254.27z"/>
	</g>
	<g>
		<path d="M276.95,240.83c-0.17,0-0.34-0.1-0.41-0.27c-0.09-0.23,0.01-0.49,0.24-0.58c5.6-2.32,6.92-5.53,6.93-5.56l0.13-0.32
			l0.34,0.04l23.19,3.05c0.24,0.03,0.41,0.25,0.38,0.5c-0.03,0.24-0.25,0.41-0.5,0.38l-22.87-3.01c-0.49,0.93-2.27,3.67-7.27,5.74
			C277.06,240.82,277,240.83,276.95,240.83z"/>
	</g>
	<g>
		<path d="M278.52,341.9c-0.06,0-0.11-0.01-0.17-0.03c-0.23-0.09-0.33-0.35-0.24-0.58l20.64-50.07c0.09-0.23,0.35-0.33,0.58-0.24
			c0.23,0.09,0.33,0.35,0.24,0.58l-20.64,50.07C278.86,341.79,278.7,341.9,278.52,341.9z"/>
	</g>
	<g>
		<path d="M311.14,277.26c-0.16,0-0.32-0.09-0.39-0.24c-0.11-0.22-0.02-0.48,0.19-0.6c42.29-21.59,48.88-38.21,48.94-38.38
			l0.02-0.05c0.01-0.03,1.37-2.74-0.1-5.62c-1.67-3.27-6.38-5.58-13.62-6.69c-24.42-3.73-53.75-0.76-54.04-0.73l-0.21,0.02
			l-0.15-0.15c-1.93-1.93-4.06-2.95-4.08-2.96c-0.22-0.1-0.32-0.37-0.21-0.59c0.1-0.22,0.37-0.32,0.59-0.21
			c0.09,0.04,2.18,1.04,4.18,2.99c2.69-0.26,30.61-2.83,54.06,0.75c7.65,1.17,12.46,3.58,14.28,7.18c1.61,3.17,0.26,6.06,0.1,6.39
			c-0.37,0.99-7.1,17.26-49.36,38.83C311.27,277.24,311.2,277.26,311.14,277.26z"/>
	</g>
	<g>
		<path d="M245.7,260.9l-0.25-0.98c-1.71-6.68-9.06-12.98-9.13-13.05c-0.19-0.16-0.21-0.44-0.05-0.62c0.16-0.19,0.44-0.21,0.62-0.05
			c0.3,0.25,6.99,6,9.14,12.56l5.74-8.81c-0.32-0.25-1.32-0.85-4.38-2.21c-0.22-0.1-0.32-0.36-0.22-0.58
			c0.1-0.22,0.36-0.32,0.58-0.22c4.99,2.22,5,2.63,5.01,2.99l0,0.14L245.7,260.9z M251.92,250.08L251.92,250.08L251.92,250.08z"/>
	</g>
	<g>
		<path d="M198.4,264.89c-0.12,0-0.25-0.05-0.34-0.15c-0.17-0.2-17.41-20.22-29.11-39.11c-9.13-14.74-4.68-17.85-1.74-19.91
			c0.44-0.3,0.85-0.59,1.13-0.88c2.13-2.13,16.86-0.95,43.76,3.51c23.15,3.84,32.14,6.65,32.22,6.68c0.23,0.07,0.36,0.32,0.29,0.56
			c-0.07,0.23-0.32,0.36-0.56,0.29c-0.09-0.03-9.03-2.82-32.1-6.65c-36.19-6.01-42.11-4.63-42.98-3.76
			c-0.34,0.34-0.78,0.65-1.25,0.98c-2.67,1.87-6.71,4.7,1.98,18.72c11.67,18.83,28.85,38.79,29.03,38.99
			c0.16,0.19,0.14,0.46-0.05,0.62C198.61,264.85,198.51,264.89,198.4,264.89z"/>
	</g>
	<g>
		<path d="M240.6,226.89c-0.03,0-0.06,0-0.09-0.01c-0.32-0.06-31.8-6.19-43.01-2.85c-0.23,0.07-0.48-0.06-0.55-0.3
			c-0.07-0.23,0.06-0.48,0.3-0.55c11.42-3.4,42.14,2.57,43.44,2.83c0.24,0.05,0.4,0.28,0.35,0.52
			C240.99,226.75,240.81,226.89,240.6,226.89z"/>
	</g>
	<g>
		<path d="M236.6,246.98c-0.04,0-0.09-0.01-0.13-0.02c-0.13-0.04-13.44-4.17-18.47-5.17c-5.21-1.04-16.35-14.49-16.82-15.06
			c-0.16-0.19-0.13-0.47,0.06-0.62c0.19-0.16,0.47-0.13,0.62,0.06c0.11,0.14,11.41,13.78,16.31,14.76
			c5.08,1.01,18.43,5.15,18.56,5.19c0.23,0.07,0.36,0.32,0.29,0.55C236.97,246.86,236.79,246.98,236.6,246.98z"/>
	</g>
	<g>
		<path d="M259.17,262l-0.07-0.67c-0.56-5.44-4.4-10.42-4.44-10.47l-0.36-0.47l0.55-0.22c4.65-1.84,16.1-1.91,16.58-1.91l0.41,0
			l0.04,0.41c0.06,0.7,0.14,1.34,0.25,1.91c0.04,0.24-0.12,0.47-0.36,0.51c-0.24,0.04-0.47-0.12-0.51-0.36
			c-0.09-0.48-0.16-1-0.22-1.58c-2.01,0.03-11.02,0.23-15.31,1.65c0.96,1.35,3.52,5.3,4.18,9.77l6.2-3.46
			c0.21-0.12,0.48-0.04,0.6,0.17c0.12,0.21,0.04,0.48-0.17,0.6L259.17,262z"/>
	</g>
	<g>
		<path d="M197.22,340.03c-0.06,0-0.12-0.01-0.17-0.04c-0.22-0.1-0.33-0.36-0.23-0.58c13.74-32.16,9.8-79.75,9.76-80.23
			c-0.02-0.24,0.16-0.46,0.4-0.48c0.25-0.02,0.46,0.16,0.48,0.4c0.04,0.48,4,48.29-9.83,80.65
			C197.55,339.93,197.39,340.03,197.22,340.03z"/>
	</g>
	<g>
		<path d="M258.4,231.2c-3.02,0-5.32-1.52-5.35-1.55c-0.2-0.14-0.26-0.41-0.12-0.61c0.14-0.2,0.41-0.26,0.61-0.12
			c0.18,0.12,4.56,3.01,9,0.18c0.21-0.13,0.48-0.07,0.61,0.13c0.13,0.21,0.07,0.48-0.13,0.61
			C261.43,230.85,259.84,231.2,258.4,231.2z"/>
	</g>
	<g>
		<path d="M224.99,344.22c-0.18,0-0.34-0.11-0.41-0.28c-0.09-0.23,0.02-0.48,0.25-0.58c0.01,0,1.42-0.64,5.14-4.63
			c3.08-3.3,10.28-11.02,7.7-21.63c-1.97-8.09,0.62-13.35,5.31-22.91c1.41-2.88,3.02-6.14,4.75-10c7.36-16.36,3.81-27.7,3.78-27.81
			c-0.08-0.23,0.05-0.48,0.28-0.56c0.23-0.08,0.48,0.05,0.56,0.28c0.04,0.12,3.71,11.76-3.81,28.45c-1.75,3.88-3.35,7.14-4.77,10.03
			c-4.6,9.37-7.14,14.54-5.25,22.31c2.69,11.07-4.74,19.04-7.92,22.44c-3.86,4.14-5.31,4.79-5.46,4.85
			C225.1,344.21,225.04,344.22,224.99,344.22z"/>
	</g>
	<g>
		<path d="M280.35,287.88c-0.04,0-0.08-0.01-0.12-0.02L259.29,282c-0.24-0.07-0.37-0.31-0.31-0.55s0.31-0.37,0.55-0.31l20.94,5.86
			c0.24,0.07,0.37,0.31,0.31,0.55C280.72,287.75,280.55,287.88,280.35,287.88z"/>
	</g>
	<g>
		<path d="M259.32,207.98c-0.16,0-0.32-0.09-0.4-0.25c-0.04-0.08-1.01-2-3.66-2.39c-0.24-0.04-0.41-0.26-0.37-0.5
			c0.04-0.24,0.26-0.41,0.5-0.37c3.13,0.45,4.28,2.78,4.33,2.88c0.11,0.22,0.01,0.49-0.21,0.59
			C259.45,207.97,259.39,207.98,259.32,207.98z"/>
	</g>
	<g>
		<path d="M274.74,215.46c-0.19,0-0.37-0.13-0.43-0.32c-0.01-0.04-0.67-2.08-4.48-3.56c-0.23-0.09-0.34-0.34-0.25-0.57
			c0.09-0.23,0.34-0.34,0.57-0.25c4.29,1.66,4.99,4.04,5.02,4.14c0.06,0.24-0.07,0.48-0.31,0.54
			C274.82,215.46,274.78,215.46,274.74,215.46z"/>
	</g>
	<g>
		<polygon class="st3" points="235.82,376 222.99,309.9 138.2,307.39 152.98,369.03 		"/>
		<path d="M236.37,376.49l-0.58-0.05l-83.16-7l-0.07-0.31l-14.92-62.2l0.58,0.02l85.14,2.52L236.37,376.49z M153.34,368.61
			l81.94,6.9l-12.65-65.18l-83.86-2.48L153.34,368.61z"/>
	</g>
	<g>
		<path d="M235.82,376.44c-0.14,0-0.28-0.07-0.37-0.19c-0.14-0.2-0.09-0.48,0.12-0.62l23.54-16.05l-24.4-2.39
			c-0.24-0.02-0.42-0.24-0.4-0.48c0.02-0.24,0.24-0.42,0.48-0.4l26.83,2.63l-25.55,17.42C235.99,376.42,235.91,376.44,235.82,376.44
			z"/>
	</g>
	<g>
		<path d="M236.82,225.77l-4.55-0.9l3.36-14.39l3.9,2.36L236.82,225.77z M233.33,224.18l2.8,0.55l2.4-11.46l-2.32-1.41
			L233.33,224.18z"/>
	</g>
	<g>
		<path d="M297.76,236.99l-4.73-0.68l4.78-12.84l3.92-0.33L297.76,236.99z M294.25,235.59l2.88,0.41l3.41-11.87l-2.09,0.17
			L294.25,235.59z"/>
	</g>
	<g>
		<path d="M293.43,347.25h-63.28c-0.24,0-0.44-0.2-0.44-0.44c0-0.24,0.2-0.44,0.44-0.44h63.28c0.24,0,0.44,0.2,0.44,0.44
			C293.88,347.05,293.68,347.25,293.43,347.25z"/>
	</g>
	<g>
		<path d="M88.32,377.41c-0.11,0-0.23-0.04-0.31-0.13c-0.17-0.17-0.18-0.45,0-0.63l31.84-32.15c0.17-0.17,0.45-0.18,0.63,0
			c0.17,0.17,0.18,0.45,0,0.63l-31.84,32.15C88.55,377.36,88.43,377.41,88.32,377.41z"/>
	</g>
	<g>
		<path d="M189.12,347.09c-3.37,0-7.12-2.24-8.4-5.05l0,0c-0.63-1.37-0.61-2.7,0.06-3.76c0.73-1.16,2.18-1.85,3.98-1.88
			c0.05,0,0.09,0,0.14,0c3.37,0,7.12,2.24,8.41,5.05c0.63,1.37,0.61,2.7-0.06,3.76c-0.73,1.16-2.18,1.85-3.98,1.88
			C189.22,347.09,189.17,347.09,189.12,347.09z M184.9,337.28c-0.04,0-0.08,0-0.13,0c-1.5,0.03-2.68,0.56-3.25,1.47
			c-0.5,0.79-0.5,1.83,0,2.92l0,0c1.15,2.52,4.54,4.54,7.59,4.54c0.04,0,0.08,0,0.13,0c1.5-0.03,2.68-0.56,3.25-1.47
			c0.5-0.79,0.5-1.83,0-2.92C191.34,339.29,187.96,337.28,184.9,337.28z"/>
	</g>
	<g>
		<path d="M369.57,377.41H88.32c-0.24,0-0.44-0.2-0.44-0.44s0.2-0.44,0.44-0.44h279.1l-29.64-29.41c-0.17-0.17-0.17-0.45,0-0.63
			c0.17-0.17,0.45-0.17,0.63,0L369.57,377.41z"/>
	</g>
	<g>
		<path d="M323.23,336.38c-6.53,0-13.48-1.35-13.48-3.86c0-0.54,0.31-1.05,0.93-1.5c0.2-0.15,0.47-0.1,0.62,0.09
			c0.15,0.2,0.1,0.47-0.09,0.62c-0.26,0.19-0.57,0.48-0.57,0.79c0,1.24,4.79,2.97,12.59,2.97c7.8,0,12.59-1.73,12.59-2.97
			c0-0.84-2.3-2.01-6.7-2.6c-0.24-0.03-0.41-0.26-0.38-0.5c0.03-0.24,0.25-0.41,0.5-0.38c2.24,0.3,7.46,1.25,7.46,3.48
			C336.71,335.03,329.77,336.38,323.23,336.38z"/>
	</g>
	<g>
		<path d="M323.23,366.64c-6.53,0-13.48-1.35-13.48-3.86c0-0.24,0.2-0.44,0.44-0.44s0.44,0.2,0.44,0.44c0,1.24,4.79,2.97,12.59,2.97
			c4.62,0,8.89-0.65,11.15-1.69c0.22-0.1,0.49,0,0.59,0.22c0.1,0.22,0.01,0.49-0.22,0.59C332.38,365.97,327.97,366.64,323.23,366.64
			z"/>
	</g>
	<g>
		<path d="M336.27,363.23c-0.24,0-0.44-0.2-0.44-0.44v-30.26c0-0.24,0.2-0.44,0.44-0.44c0.24,0,0.44,0.2,0.44,0.44v30.26
			C336.71,363.03,336.51,363.23,336.27,363.23z"/>
	</g>
	<g>
		<path d="M310.19,363.23c-0.24,0-0.44-0.2-0.44-0.44v-23.03c0-0.24,0.2-0.44,0.44-0.44s0.44,0.2,0.44,0.44v23.03
			C310.64,363.03,310.44,363.23,310.19,363.23z"/>
	</g>
	<g>
		<path d="M304.98,349.11c-0.17,0-0.33-0.09-0.4-0.25c-1.82-3.85-2.07-6.88-0.76-9.02c1.72-2.81,5.47-2.95,5.63-2.96
			c0.24,0,0.45,0.18,0.46,0.43c0.01,0.24-0.18,0.45-0.43,0.46c-0.03,0-3.44,0.14-4.91,2.54c-1.14,1.87-0.87,4.62,0.81,8.18
			c0.1,0.22,0.01,0.49-0.21,0.59C305.1,349.09,305.04,349.11,304.98,349.11z"/>
	</g>
	<g>
		<path d="M308.93,356.85c-0.06,0-0.12-0.01-0.17-0.03c-2.59-1.09-6.85-5.88-8.14-8.66c-2.34-5.04-2.6-8.95-0.75-11.63
			c2.88-4.18,9.74-3.74,10.03-3.72c0.24,0.02,0.43,0.23,0.41,0.47c-0.02,0.24-0.23,0.43-0.47,0.41c-0.07-0.01-6.65-0.42-9.24,3.34
			c-1.65,2.4-1.38,6.02,0.83,10.76c1.19,2.56,5.37,7.24,7.69,8.22c0.23,0.1,0.33,0.35,0.24,0.58
			C309.27,356.74,309.11,356.85,308.93,356.85z"/>
	</g>
	<g>
		<path d="M319.75,333.91c-0.16,0-0.32-0.09-0.39-0.24c-0.05-0.09-1.1-2.3,1.49-6.86c0.9-1.58,1.13-3.01,0.69-4.23
			c-0.68-1.91-2.77-2.73-2.79-2.74c-0.23-0.09-0.34-0.34-0.25-0.57c0.09-0.23,0.34-0.34,0.57-0.25c0.1,0.04,2.49,0.98,3.31,3.27
			c0.53,1.48,0.28,3.15-0.76,4.97c-2.32,4.09-1.47,6.01-1.46,6.03c0.1,0.22,0.01,0.48-0.21,0.59
			C319.89,333.9,319.82,333.91,319.75,333.91z"/>
	</g>
	<g>
		<path d="M323.62,333.66c-0.16,0-0.31-0.09-0.39-0.24c-0.43-0.83-0.82-2.79,0.76-4.26c2.07-1.93,1.04-3.77,1.03-3.79
			c-0.12-0.21-0.05-0.48,0.16-0.61c0.21-0.12,0.48-0.05,0.61,0.16c0.01,0.02,1.39,2.47-1.19,4.88c-1.5,1.4-0.59,3.19-0.58,3.21
			c0.11,0.22,0.03,0.48-0.19,0.6C323.76,333.65,323.69,333.66,323.62,333.66z"/>
	</g>
	<g>
		<path d="M287.56,347.25c-0.06,0-0.13-0.01-0.19-0.04c-0.22-0.11-0.31-0.37-0.21-0.59L314,290.55c0.11-0.22,0.37-0.31,0.59-0.21
			c0.22,0.11,0.31,0.37,0.21,0.59l-26.85,56.06C287.88,347.15,287.72,347.25,287.56,347.25z"/>
	</g>
	<g>
		<path d="M95.09,219.79l-1.17-36.77l40.04-5.61l1.17,36.77L95.09,219.79z M94.37,183.4l1.15,35.88l39.15-5.49l-1.15-35.88
			L94.37,183.4z"/>
	</g>
	<g>
		<rect x="163.49" y="137.62" class="st4" width="96.47" height="5.14"/>
	</g>
	<g>
		<path d="M187.84,195.57h-22.69c-1.03,0-1.87-0.84-1.87-1.88v-54.42c0-1.03,0.84-1.88,1.87-1.88h93.36c1.03,0,1.88,0.84,1.88,1.88
			v24.8c0,0.12-0.1,0.22-0.22,0.22c-0.12,0-0.22-0.1-0.22-0.22v-24.8c0-0.79-0.64-1.43-1.43-1.43h-93.36
			c-0.79,0-1.43,0.64-1.43,1.43v54.42c0,0.79,0.64,1.43,1.43,1.43h22.69c0.12,0,0.22,0.1,0.22,0.22
			C188.06,195.47,187.96,195.57,187.84,195.57z"/>
	</g>
	<g>
		<circle class="st5" cx="235.99" cy="151.53" r="0.43"/>
	</g>
	<g>
		<circle class="st6" cx="238.46" cy="147.76" r="0.43"/>
	</g>
	<g>
		<path class="st7" d="M230.45,147.78h-8.36c-0.88,0-1.61-0.72-1.61-1.61l0,0c0-0.88,0.72-1.61,1.61-1.61h8.36
			c0.88,0,1.61,0.72,1.61,1.61l0,0C232.06,147.06,231.34,147.78,230.45,147.78z"/>
	</g>
	<g>
		<path class="st7" d="M243.05,147.78h-8.36c-0.88,0-1.61-0.72-1.61-1.61l0,0c0-0.88,0.72-1.61,1.61-1.61h8.36
			c0.88,0,1.61,0.72,1.61,1.61l0,0C244.66,147.06,243.94,147.78,243.05,147.78z"/>
	</g>
	<g>
		<path class="st7" d="M251.66,151.55h-8.36c-0.88,0-1.61-0.72-1.61-1.61l0,0c0-0.88,0.72-1.61,1.61-1.61h8.36
			c0.88,0,1.61,0.72,1.61,1.61l0,0C253.26,150.83,252.54,151.55,251.66,151.55z"/>
	</g>
	<g>
		<rect x="165.94" y="148.65" class="st7" width="5.34" height="43.01"/>
	</g>
	<g>
		<path class="st7" d="M190.12,166.49h-12.12c-1.88,0-3.4-1.52-3.4-3.4v-0.73c0-1.88,1.52-3.4,3.4-3.4h12.12
			c1.88,0,3.4,1.52,3.4,3.4v0.73C193.53,164.96,192,166.49,190.12,166.49z"/>
	</g>
	<g>
		<path class="st7" d="M210.41,166.49h-12.12c-1.88,0-3.4-1.52-3.4-3.4v-0.73c0-1.88,1.52-3.4,3.4-3.4h12.12
			c1.88,0,3.4,1.52,3.4,3.4v0.73C213.81,164.96,212.28,166.49,210.41,166.49z"/>
	</g>
	<g>
		<path class="st7" d="M230.69,166.49h-12.12c-1.88,0-3.4-1.52-3.4-3.4v-0.73c0-1.88,1.52-3.4,3.4-3.4h12.12
			c1.88,0,3.4,1.52,3.4,3.4v0.73C234.09,164.96,232.57,166.49,230.69,166.49z"/>
	</g>
	<g>
		<path class="st7" d="M250.97,166.49h-12.12c-1.88,0-3.4-1.52-3.4-3.4v-0.73c0-1.88,1.52-3.4,3.4-3.4h12.12
			c1.88,0,3.4,1.52,3.4,3.4v0.73C254.37,164.96,252.85,166.49,250.97,166.49z"/>
	</g>
	<g>
		<path class="st7" d="M217.02,187.36h-39.32c-1.88,0-3.4-1.52-3.4-3.4v-11.57c0-1.88,1.52-3.4,3.4-3.4h39.32
			c1.88,0,3.4,1.52,3.4,3.4v11.57C220.42,185.83,218.89,187.36,217.02,187.36z"/>
	</g>
	<g>
		<path class="st7" d="M239.28,187.36h-11.57c-1.88,0-3.4-1.52-3.4-3.4v-11.57c0-1.88,1.52-3.4,3.4-3.4h11.57
			c1.88,0,3.4,1.52,3.4,3.4v11.57C242.69,185.83,241.16,187.36,239.28,187.36z"/>
	</g>
	<g transform="translate(1.4065934065934016 1.4065934065934016) scale(2.81 2.81)">
		<g>
			<path class="st8" d="M68.25,56.35C68.25,56.35,68.25,56.35,68.25,56.35c-0.01,0-0.02,0-0.03-0.01l-0.1-0.11
				c-0.01-0.02-0.01-0.04,0-0.05c0.02-0.01,0.04-0.01,0.05,0l0.07,0.08l0.24-0.24c0.01-0.01,0.04-0.01,0.05,0
				c0.01,0.01,0.01,0.04,0,0.05l-0.27,0.27C68.27,56.34,68.26,56.35,68.25,56.35z"/>
		</g>
		<g>
			<path class="st8" d="M68.26,56.55c-0.19,0-0.34-0.15-0.34-0.34s0.15-0.34,0.34-0.34c0.06,0,0.12,0.02,0.18,0.05
				c0.02,0.01,0.02,0.03,0.01,0.05c-0.01,0.02-0.03,0.02-0.05,0.01c-0.04-0.03-0.09-0.04-0.14-0.04c-0.15,0-0.27,0.12-0.27,0.27
				s0.12,0.27,0.27,0.27c0.15,0,0.27-0.12,0.27-0.27c0-0.01,0-0.02,0-0.03c0-0.02,0.01-0.04,0.03-0.04c0.02,0,0.04,0.01,0.04,0.03
				c0,0.01,0,0.03,0,0.04C68.6,56.4,68.45,56.55,68.26,56.55z"/>
		</g>
	</g>
	<g transform="translate(1.4065934065934016 1.4065934065934016) scale(2.81 2.81)">
		<g>
			<path class="st8" d="M75.49,56.35C75.49,56.35,75.49,56.35,75.49,56.35c-0.01,0-0.02,0-0.03-0.01l-0.1-0.11
				c-0.01-0.02-0.01-0.04,0-0.05c0.02-0.01,0.04-0.01,0.05,0l0.07,0.08l0.24-0.24c0.01-0.01,0.04-0.01,0.05,0
				c0.01,0.01,0.01,0.04,0,0.05l-0.27,0.27C75.51,56.34,75.5,56.35,75.49,56.35z"/>
		</g>
		<g>
			<path class="st8" d="M75.5,56.55c-0.19,0-0.34-0.15-0.34-0.34s0.15-0.34,0.34-0.34c0.06,0,0.12,0.02,0.18,0.05
				c0.02,0.01,0.02,0.03,0.01,0.05c-0.01,0.02-0.03,0.02-0.05,0.01c-0.04-0.03-0.09-0.04-0.14-0.04c-0.15,0-0.27,0.12-0.27,0.27
				s0.12,0.27,0.27,0.27c0.15,0,0.27-0.12,0.27-0.27c0-0.01,0-0.02,0-0.03c0-0.02,0.01-0.04,0.03-0.04c0.02,0,0.04,0.01,0.04,0.03
				c0,0.01,0,0.03,0,0.04C75.84,56.4,75.69,56.55,75.5,56.55z"/>
		</g>
	</g>
	<g transform="translate(1.4065934065934016 1.4065934065934016) scale(2.81 2.81)">
		<g>
			<path class="st8" d="M82.72,56.35C82.72,56.35,82.72,56.35,82.72,56.35c-0.01,0-0.02,0-0.03-0.01l-0.1-0.11
				c-0.01-0.02-0.01-0.04,0-0.05c0.02-0.01,0.04-0.01,0.05,0l0.07,0.08l0.24-0.24c0.01-0.01,0.04-0.01,0.05,0
				c0.01,0.01,0.01,0.04,0,0.05l-0.27,0.27C82.74,56.34,82.74,56.35,82.72,56.35z"/>
		</g>
		<g>
			<path class="st8" d="M82.74,56.55c-0.19,0-0.34-0.15-0.34-0.34s0.15-0.34,0.34-0.34c0.06,0,0.12,0.02,0.18,0.05
				c0.02,0.01,0.02,0.03,0.01,0.05c-0.01,0.02-0.03,0.02-0.05,0.01c-0.04-0.03-0.09-0.04-0.14-0.04c-0.15,0-0.27,0.12-0.27,0.27
				s0.12,0.27,0.27,0.27c0.15,0,0.27-0.12,0.27-0.27c0-0.01,0-0.02,0-0.03c0-0.02,0.01-0.04,0.03-0.04c0.02,0,0.04,0.01,0.04,0.03
				c0,0.01,0,0.03,0,0.04C83.08,56.4,82.93,56.55,82.74,56.55z"/>
		</g>
	</g>
	<g>
		<path class="st3" d="M176.96,184.98L176.96,184.98c-0.33,0-0.6-0.27-0.6-0.6v-11.45c0-0.33,0.27-0.6,0.6-0.6l0,0
			c0.33,0,0.6,0.27,0.6,0.6v11.45C177.56,184.71,177.29,184.98,176.96,184.98z"/>
	</g>
	<g>
		<path class="st3" d="M179.04,184.98L179.04,184.98c-0.33,0-0.6-0.27-0.6-0.6v-7.25c0-0.33,0.27-0.6,0.6-0.6l0,0
			c0.33,0,0.6,0.27,0.6,0.6v7.25C179.64,184.71,179.37,184.98,179.04,184.98z"/>
	</g>
	<g>
		<path class="st3" d="M181.12,184.98L181.12,184.98c-0.33,0-0.6-0.27-0.6-0.6v-5.61c0-0.33,0.27-0.6,0.6-0.6l0,0
			c0.33,0,0.6,0.27,0.6,0.6v5.61C181.72,184.71,181.45,184.98,181.12,184.98z"/>
	</g>
	<g>
		<path class="st3" d="M183.2,184.98L183.2,184.98c-0.33,0-0.6-0.27-0.6-0.6v-8.16c0-0.33,0.27-0.6,0.6-0.6h0
			c0.33,0,0.6,0.27,0.6,0.6v8.16C183.8,184.71,183.53,184.98,183.2,184.98z"/>
	</g>
	<g>
		<path class="st3" d="M185.15,184.98L185.15,184.98c-0.33,0-0.6-0.27-0.6-0.6v-6.76c0-0.33,0.27-0.6,0.6-0.6l0,0
			c0.33,0,0.6,0.27,0.6,0.6v6.76C185.76,184.71,185.49,184.98,185.15,184.98z"/>
	</g>
	<g>
		<circle class="st3" cx="191.68" cy="180.13" r="5.39"/>
	</g>
	<g>
		<polygon class="st1" points="118.83,235.39 73.7,241.06 73.17,224.62 118.3,218.95 		"/>
	</g>
	<g>
		<path class="st0" d="M123.33,247.63l1.62,86.69c0,0-58.93-3.49-70.21-21.52l-2.41-90.19C52.32,222.62,50.62,243.8,123.33,247.63z"
			/>
	</g>
	<g transform="translate(1.4065934065934016 1.4065934065934016) scale(2.81 2.81)">
		<g>
			<path class="st8" d="M129.92,110.39C129.92,110.39,129.92,110.39,129.92,110.39c-0.07-0.01-0.12-0.05-0.15-0.1l-0.47-0.72
				c-0.07-0.1-0.04-0.24,0.06-0.3c0.1-0.07,0.24-0.04,0.3,0.06l0.34,0.52l1.56-1.16c0.1-0.07,0.23-0.05,0.31,0.05
				c0.07,0.1,0.05,0.23-0.05,0.31l-1.74,1.29C130.04,110.38,129.98,110.4,129.92,110.39z"/>
		</g>
		<g>
			<path class="st8" d="M129.83,111.58c-1.07-0.16-1.81-1.17-1.65-2.25c0.16-1.08,1.17-1.82,2.24-1.66c0.36,0.05,0.69,0.2,0.96,0.43
				c0.09,0.08,0.11,0.22,0.03,0.31c-0.08,0.09-0.22,0.11-0.31,0.03c-0.21-0.18-0.47-0.3-0.75-0.34c-0.83-0.13-1.61,0.45-1.74,1.29
				s0.45,1.62,1.29,1.75c0.83,0.13,1.61-0.45,1.74-1.29c0.01-0.06,0.02-0.13,0.02-0.2c0-0.12,0.1-0.22,0.22-0.21
				c0.12,0,0.22,0.1,0.21,0.22c0,0.08-0.01,0.17-0.02,0.25C131.9,111,130.9,111.75,129.83,111.58z"/>
		</g>
	</g>
	<g transform="translate(1.4065934065934016 1.4065934065934016) scale(2.81 2.81)">
		<g>
			<path class="st8" d="M31.97,95.33C31.97,95.33,31.97,95.33,31.97,95.33c-0.06-0.01-0.11-0.03-0.14-0.08l-0.48-0.61
				c-0.07-0.09-0.05-0.21,0.03-0.28c0.09-0.07,0.21-0.05,0.28,0.03l0.35,0.45l1.32-1.17c0.08-0.07,0.21-0.06,0.28,0.02
				c0.07,0.08,0.06,0.21-0.02,0.28l-1.48,1.31C32.08,95.32,32.03,95.34,31.97,95.33z"/>
		</g>
		<g>
			<path class="st8" d="M31.98,96.42c-0.98-0.06-1.73-0.92-1.67-1.91c0.06-0.99,0.91-1.74,1.9-1.68c0.33,0.02,0.64,0.13,0.91,0.32
				c0.09,0.06,0.11,0.19,0.05,0.28c-0.06,0.09-0.19,0.11-0.28,0.05c-0.21-0.15-0.45-0.23-0.71-0.25c-0.77-0.05-1.43,0.54-1.48,1.31
				c-0.05,0.77,0.54,1.43,1.3,1.48c0.77,0.05,1.43-0.54,1.48-1.31c0-0.06,0-0.12,0-0.18c-0.01-0.11,0.08-0.2,0.19-0.21
				c0.11-0.01,0.2,0.08,0.21,0.19c0,0.08,0,0.15,0,0.23C33.81,95.73,32.96,96.48,31.98,96.42z"/>
		</g>
	</g>
	<g>
		<path d="M367.75,316.34c-4.68,0-8.47-0.66-8.84-0.73l-0.2-0.04l0.02-0.21l3.63-32.86l0.24,0.05c12.65,2.63,19.34,0.25,22.73-2.22
			c3.06-2.22,3.99-4.87,4.07-5.62c0.9-8.15-13.14-11.96-15.17-12.47l-1.58,14.28c-0.01,0.12-0.12,0.21-0.24,0.2
			c-0.12-0.01-0.21-0.12-0.2-0.24l1.63-14.78l0.24,0.05c0.68,0.15,16.76,3.87,15.75,13c-0.09,0.8-1.06,3.61-4.25,5.93
			c-3.44,2.5-10.19,4.92-22.84,2.34l-3.55,32.17c2.24,0.36,22.18,3.27,26.53-7.2l1.07-9.64c0.01-0.12,0.12-0.21,0.24-0.2
			c0.12,0.01,0.21,0.12,0.2,0.24l-1.08,9.73C383.36,314.92,374.6,316.34,367.75,316.34z"/>
	</g>
	<g>
		<g>
			<path d="M367.29,196.77l-0.23-0.04l-62-9.89l3.03-23.63l62.18,10.27L367.29,196.77z M305.56,186.47l61.35,9.79l2.88-22.41
				l-61.31-10.13L305.56,186.47z"/>
		</g>
		<g>
			<path class="st1" d="M354.51,206.94l-18.99-2.45c-2.1-0.27-3.6-2.21-3.33-4.31l1.26-9.79c0.27-2.1,2.21-3.6,4.31-3.33l18.99,2.45
				c2.1,0.27,3.6,2.21,3.33,4.31l-1.26,9.79C358.55,205.71,356.61,207.21,354.51,206.94z"/>
		</g>
		<g transform="translate(1.4065934065934016 1.4065934065934016) scale(2.81 2.81)">
			<g>
				<path class="st8" d="M112.68,63.34C112.68,63.34,112.68,63.34,112.68,63.34c-0.06-0.01-0.1-0.04-0.13-0.09l-0.41-0.65
					c-0.06-0.09-0.03-0.21,0.06-0.27c0.09-0.06,0.21-0.03,0.27,0.06l0.3,0.48l1.42-1.01c0.09-0.06,0.21-0.04,0.27,0.05
					c0.06,0.09,0.04,0.21-0.05,0.28l-1.59,1.14C112.78,63.34,112.73,63.35,112.68,63.34z"/>
			</g>
			<g>
				<path class="st8" d="M112.58,64.41c-0.96-0.16-1.61-1.08-1.45-2.05c0.16-0.97,1.08-1.62,2.04-1.46
					c0.32,0.05,0.62,0.19,0.86,0.41c0.08,0.07,0.09,0.2,0.02,0.28c-0.07,0.08-0.2,0.09-0.28,0.02c-0.19-0.16-0.42-0.27-0.67-0.31
					c-0.75-0.13-1.46,0.38-1.59,1.13s0.38,1.47,1.13,1.59c0.75,0.13,1.46-0.38,1.59-1.13c0.01-0.06,0.02-0.12,0.02-0.18
					c0-0.11,0.1-0.19,0.2-0.19c0.11,0,0.19,0.1,0.19,0.21c0,0.08-0.01,0.15-0.02,0.22C114.45,63.92,113.54,64.58,112.58,64.41z"/>
			</g>
		</g>
		<g>
			<path d="M363.89,183.09c-0.01,0-0.02,0-0.04,0l-34.67-5.53c-0.12-0.02-0.2-0.13-0.18-0.25c0.02-0.12,0.13-0.2,0.25-0.18
				l34.67,5.53c0.12,0.02,0.2,0.13,0.18,0.25C364.09,183.01,363.99,183.09,363.89,183.09z"/>
		</g>
		<g>
			<path d="M356.01,186.85c-0.01,0-0.02,0-0.03,0l-28.83-3.72c-0.12-0.02-0.21-0.13-0.19-0.25c0.02-0.12,0.13-0.21,0.25-0.19
				l28.83,3.72c0.12,0.02,0.21,0.13,0.19,0.25C356.22,186.76,356.12,186.85,356.01,186.85z"/>
		</g>
		<g>
			<rect x="344.78" y="196.9" transform="matrix(0.986 0.1665 -0.1665 0.986 38.0381 -54.8656)" width="2.89" height="5.03"/>
		</g>
		<g>
			<rect x="351.38" y="196.94" transform="matrix(0.9918 0.1279 -0.1279 0.9918 28.5124 -43.4822)" width="2.89" height="6.65"/>
		</g>
	</g>
	<g>
		<path d="M125.17,334.58l-0.26-0.04c-0.43-0.06-43-6.4-51.52-9.55c-8.53-3.16-18.71-11.93-18.81-12.02l-0.07-0.06l0-0.1
			l-1.97-61.78c0-0.12,0.09-0.22,0.21-0.23c0.12,0,0.22,0.09,0.23,0.21l1.97,61.68c0.93,0.8,10.52,8.88,18.6,11.87
			c8.13,3.01,47.58,8.95,51.17,9.49l-1.61-86.21c-31.82-0.68-48.99-6.37-57.8-11.03c-9.62-5.09-11.62-9.97-11.7-10.17
			c-1.04-5.78,3.14-11.08,12.39-15.78c0.11-0.06,0.24-0.01,0.3,0.1c0.06,0.11,0.01,0.24-0.1,0.3c-9.06,4.61-13.15,9.74-12.17,15.27
			c0.01,0.01,2.04,4.92,11.55,9.94c8.79,4.63,25.95,10.29,57.75,10.95l0.21,0l0,0.21L125.17,334.58z"/>
	</g>
	<g>
		<path d="M72.13,311.88l-8.52-1.48l-0.01-0.18l-1.59-49.85l8.52,1.48l0.01,0.18L72.13,311.88z M64.04,310.02l7.63,1.33l-1.57-49.13
			l-7.63-1.33L64.04,310.02z"/>
	</g>
	<g>
		<polygon class="st1" points="132.51,212.04 90.42,218.43 88.85,169.19 130.94,162.81 		"/>
	</g>
	<g>
		<path class="st9" d="M428.53,297.32c-0.1,0-0.19-0.06-0.21-0.16l-1.38-5.12c-0.03-0.12,0.04-0.24,0.16-0.27
			c0.12-0.03,0.24,0.04,0.27,0.16l1.38,5.12c0.03,0.12-0.04,0.24-0.16,0.27C428.56,297.32,428.54,297.32,428.53,297.32z"/>
	</g>
	<g>
		<path class="st9" d="M422.23,294.2c-0.09,0-0.17-0.05-0.2-0.14c-0.05-0.11,0.01-0.24,0.12-0.29l4.91-1.99
			c0.11-0.05,0.24,0.01,0.29,0.12c0.05,0.11-0.01,0.24-0.12,0.29l-4.91,1.99C422.29,294.2,422.26,294.2,422.23,294.2z"/>
	</g>
	<g>
		<path d="M392.34,342.98l0.03-0.25l8.15-73.72l0.19-0.01c25.28-1.42,34.7-6.4,38.15-10.32c1.09-1.24,1.48-2.29,1.63-2.94l0.08-0.7
			l0.44,0.01c0,0.03,0.02,0.32-0.08,0.8l-7.83,70.83l-0.01,0.03c-6.21,15.01-40.14,16.26-40.48,16.27L392.34,342.98z M400.92,269.42
			l-8.08,73.1c3.14-0.14,33.97-1.92,39.81-15.96l7.64-69.14c-0.26,0.46-0.6,0.97-1.07,1.51
			C435.74,262.91,426.27,267.97,400.92,269.42z"/>
	</g>
	<g>
		<path class="st9" d="M370.34,345.25c-0.04,0-0.08-0.01-0.12-0.04c-0.1-0.07-0.13-0.2-0.06-0.31l11.84-18.05l6.71,9.48l9.38-20.52
			l9.02,14.53l19.68-38.44c0.06-0.11,0.19-0.15,0.3-0.1c0.11,0.06,0.15,0.19,0.1,0.3l-20.03,39.14l-9-14.49l-9.36,20.47l-6.78-9.57
			l-11.48,17.51C370.48,345.21,370.41,345.25,370.34,345.25z"/>
	</g>
	<g>
		<path d="M86.53,317.04l-8.29-1.44l-0.01-0.18l-1.24-38.71l8.29,1.44l0.01,0.18L86.53,317.04z M78.67,315.22l7.4,1.29l-1.21-37.98
			l-7.4-1.29L78.67,315.22z"/>
	</g>
</g>
</svg>
