<?xml version="1.0" encoding="utf-8"?>
<!-- Generator: Adobe Illustrator 24.3.0, SVG Export Plug-In . SVG Version: 6.00 Build 0)  -->
<svg version="1.1" id="Layer_1" xmlns="http://www.w3.org/2000/svg" xmlns:xlink="http://www.w3.org/1999/xlink" x="0px" y="0px"
	 viewBox="0 0 500 500" style="enable-background:new 0 0 500 500;" xml:space="preserve">
<style type="text/css">
	.st0{fill:#EFEFEF;}
	.st1{fill:#7778F7;}
	.st2{fill:#4046B5;}
	.st3{fill:#FFFFFF;}
	.st4{fill:#EAEAEA;}
	.st5{fill:#009118;}
	.st6{fill:#FC1515;}
	.st7{fill:#E0E0E0;}
	.st8{fill:#00A651;}
	.st9{fill:#068C42;}
	.st10{fill:#FFCE00;}
	.st11{fill:#DDDDDD;}
	.st12{fill:#FF0000;}
	.st13{fill:none;stroke:#000000;stroke-width:2;stroke-miterlimit:10;}
	.st14{fill:none;stroke:#000000;stroke-miterlimit:10;}
	.st15{fill:none;stroke:#000000;stroke-width:2;stroke-linecap:round;stroke-miterlimit:10;}
	.st16{fill:none;stroke:#000000;stroke-width:2;stroke-linecap:round;stroke-miterlimit:10;stroke-dasharray:4.7778,4.7778;}
	.st17{fill:#FFFFFF;stroke:#000000;stroke-width:2;stroke-linecap:round;stroke-miterlimit:10;}
</style>
<g>
	<g>
		<path class="st1" d="M296.79,204.33c0,0-2.01,25.3-42.59,66.2l-7.54,60.33l-7.48,0.96l-52.65,3.87l-7.23-1.27l-4.98,8.53
			l-0.39,12.16l-37.28,0.16c0,0-8.34,2.46-13.99-16.09l10.04-1.02c0,0-11.34-0.17-11.39-2.93c-0.68-38.55-6.71-62.28,2.14-72.2
			c0,0,1.2-12.24,25.51-20.28l15.52-5.66l4.02-8.49l21.69,9.62l12.82-8.57l3.62,3.79c0,0,21.84,7.74,36.02,3.06l24.03-24.17
			c0,0-10.03,1.11-22.61-6.92c-1.39-0.89,9.11-14.05,9.11-14.05l0-6.39c0,0,33.52,8.22,40.27,13.27
			C294.82,199.26,296.79,204.33,296.79,204.33z"/>
	</g>
	<g>
		<g>
			<path d="M301.53,280.14c-0.35,0-0.7-0.07-1.04-0.2l-15.84-6.21c-0.39-0.15-0.64-0.52-0.63-0.94c0-0.42,0.26-0.78,0.65-0.93
				c15.36-5.81,17.19-16.11,17.38-19.12v0c0.03-0.42,0.23-0.8,0.57-1.04c0.34-0.25,0.77-0.34,1.18-0.24l17.16,4.16
				c1.09,0.27,1.77,1.37,1.5,2.47c-4.23,17.52-16.68,21.27-20.39,22C301.88,280.12,301.71,280.14,301.53,280.14z M285,272.83
				l15.84,6.21c0.33,0.13,0.69,0.17,1.03,0.1c3.57-0.7,15.53-4.32,19.63-21.28c0.14-0.58-0.21-1.16-0.79-1.3l-17.16-4.16
				c-0.13-0.03-0.27,0-0.38,0.08c-0.06,0.05-0.17,0.15-0.18,0.33v0c-0.2,3.16-2.1,13.95-18.01,19.97l-0.18,0.51L285,272.83z
				 M302.52,252.77L302.52,252.77L302.52,252.77z"/>
		</g>
		<g>
			<path d="M298.93,275.98c-0.01,0-0.02,0-0.02,0c-0.27-0.01-0.47-0.24-0.46-0.51l0.19-4.15c0.01-0.29,0.16-0.56,0.39-0.73
				c0.23-0.17,0.53-0.23,0.81-0.15c2.03,0.55,8.99,2.14,13.17-0.44c1.61-0.99,2.63-2.52,3.04-4.54c0.05-0.26,0.31-0.43,0.57-0.38
				c0.26,0.05,0.43,0.31,0.38,0.57c-0.47,2.29-1.64,4.03-3.48,5.17c-4.52,2.79-11.81,1.13-13.93,0.56l-0.17,4.14
				C299.4,275.78,299.18,275.98,298.93,275.98z"/>
		</g>
	</g>
	<g>
		<path d="M246.66,331.34c-0.02,0-0.04,0-0.07,0c-0.27-0.04-0.45-0.28-0.41-0.55c0.06-0.42,5.95-42.29,7.9-64.13
			c0.02-0.27,0.25-0.46,0.53-0.44c0.27,0.02,0.46,0.26,0.44,0.53c-1.96,21.87-7.85,63.76-7.91,64.18
			C247.1,331.16,246.9,331.34,246.66,331.34z"/>
	</g>
	<g>
		<path d="M244.06,205.87c-0.09,0-0.17-0.02-0.25-0.07c-0.23-0.14-0.3-0.44-0.16-0.67l9.01-14.64l-1.3-9.87h-4.48l1.49,9.63
			l-4.57,6.45c-0.15,0.22-0.46,0.27-0.68,0.12c-0.22-0.15-0.27-0.46-0.12-0.68l4.35-6.13l-1.6-10.36h6.46l1.46,11.05l-9.19,14.94
			C244.38,205.79,244.23,205.87,244.06,205.87z"/>
	</g>
	<g>
		<polygon class="st7" points="206.23,372.98 203.11,377.45 241.32,392.24 252.89,375.64 250.57,372.85 239.71,383.69 		"/>
	</g>
	<g>
		<path class="st10" d="M254.54,366.15c0,0,0.98-15.88,7.41-14.38c6.43,1.5,20.85,4.86,20.71,9.74
			C282.18,378.39,257.17,361.59,254.54,366.15z"/>
	</g>
	<g>
		<polygon class="st11" points="299.83,355.35 328.77,278.36 425.91,274.55 400.94,341.3 		"/>
	</g>
	<g>
		<path d="M229.19,405.82l-0.13-0.05L60.08,342.2l54.47-4.19c0.27-0.02,0.5,0.18,0.52,0.45c0.02,0.27-0.18,0.5-0.45,0.52
			l-50.11,3.85l164.74,61.98l223.28-49.24l-40.78-5.73c-0.27-0.04-0.45-0.28-0.41-0.55c0.04-0.26,0.28-0.45,0.55-0.41l46.1,6.48
			L229.19,405.82z"/>
	</g>
	<g>
		<path d="M295.77,358.43H281.7c-0.27,0-0.48-0.22-0.48-0.48s0.22-0.48,0.48-0.48h13.4l31.12-82.19l95.94-3.66l-0.21,0.66
			l-23.14,71.06l-0.3,0.04l-73.79,11.11c-0.26,0.04-0.51-0.14-0.55-0.41c-0.04-0.26,0.14-0.51,0.41-0.55l73.49-11.07l22.74-69.83
			l-93.91,3.58L295.77,358.43z"/>
	</g>
	<g>
		<path d="M125.85,258.33c-0.07,0-0.14-0.02-0.21-0.05c-0.24-0.12-0.34-0.41-0.23-0.65c5.49-11.37,35.68-20.79,38.71-21.71
			l3.93-7.86c0.12-0.24,0.41-0.34,0.65-0.22c0.24,0.12,0.34,0.41,0.22,0.65l-4.12,8.23l-0.2,0.06c-0.33,0.1-32.84,9.93-38.32,21.26
			C126.2,258.23,126.03,258.33,125.85,258.33z"/>
	</g>
	<g>
		<path d="M182.05,251.25c-0.55,0-1.06-0.28-1.36-0.75c-1.53-2.43-4.6-6.9-8.01-9.62c-0.21-0.17-0.24-0.47-0.08-0.68
			c0.17-0.21,0.47-0.24,0.68-0.08c3.52,2.81,6.66,7.38,8.23,9.86c0.13,0.21,0.35,0.31,0.59,0.3c0.24-0.02,0.44-0.17,0.54-0.4
			c1.81-4.45,6.09-10.24,7.4-11.95l-21.76-9.65c-0.24-0.11-0.36-0.39-0.25-0.64c0.11-0.24,0.39-0.36,0.64-0.25l22.89,10.15
			l-0.38,0.49c-0.06,0.07-5.6,7.17-7.65,12.21c-0.23,0.56-0.75,0.95-1.35,1C182.15,251.25,182.1,251.25,182.05,251.25z"/>
	</g>
	<g>
		<path d="M198.16,249.52c-0.35,0-0.65-0.21-0.77-0.54c-1.21-3.29-6.9-10.47-6.96-10.54l-0.32-0.4l12.62-8.8
			c0.22-0.15,0.52-0.1,0.68,0.12c0.15,0.22,0.1,0.52-0.12,0.68l-11.77,8.21c1.2,1.53,5.34,6.95,6.64,10.04
			c1.26-3.52,4.15-11.14,6.63-14.22c0.17-0.21,0.47-0.24,0.68-0.07c0.21,0.17,0.24,0.47,0.07,0.68c-2.55,3.16-5.7,11.74-6.6,14.3
			C198.82,249.31,198.52,249.52,198.16,249.52C198.16,249.52,198.16,249.52,198.16,249.52z"/>
	</g>
	<g>
		<path d="M229.22,237.96c-11.2,0-17.09-2.29-17.41-2.42c-0.25-0.1-0.37-0.38-0.27-0.63c0.1-0.25,0.38-0.37,0.63-0.27
			c0.1,0.04,10.68,4.14,30.26,1.38l16.51-15.39c0.2-0.18,0.5-0.17,0.68,0.02c0.18,0.2,0.17,0.5-0.02,0.69l-16.73,15.6l-0.15,0.02
			C237.59,237.69,233.09,237.96,229.22,237.96z"/>
	</g>
	<g>
		<path d="M145.56,355c-5.78,0-10.78-0.14-12.77-0.55c-6.04-1.25-10.42-15.28-10.6-15.88l-0.17-0.54l5.08-0.72
			c-1.94-0.49-4.49-1.29-6.08-2.45c-1.67-1.2-1.87-12.76-2-31.65c-0.05-6.97-0.1-13.55-0.28-18.8c-0.6-16.69,4.14-22.23,4.35-22.46
			c0.18-0.2,0.48-0.22,0.68-0.04c0.2,0.18,0.22,0.48,0.04,0.68l0,0c-0.05,0.05-4.69,5.55-4.1,21.78c0.19,5.26,0.24,11.85,0.29,18.83
			c0.09,12.59,0.21,29.83,1.6,30.87c2.62,1.89,8.31,2.84,8.37,2.85l3.12,0.51l-9.78,1.39c0.87,2.59,4.83,13.67,9.7,14.67
			c5.71,1.18,38.17,0,38.5-0.01c0.26-0.03,0.49,0.2,0.5,0.47c0.01,0.27-0.2,0.49-0.47,0.5C170.64,354.5,156.67,355,145.56,355z"/>
	</g>
	<g>
		<path d="M177.94,334.15c-0.03,0-0.06,0-0.09-0.01l-31.23-5.78l6.1-43.84c0.04-0.27,0.28-0.45,0.55-0.41
			c0.27,0.04,0.45,0.28,0.41,0.55l-5.97,42.92l30.31,5.61c0.26,0.05,0.44,0.3,0.39,0.56C178.37,333.99,178.17,334.15,177.94,334.15z
			"/>
	</g>
	<g>
		<polyline class="st3" points="179.65,353.38 179.65,345.33 186.52,333.14 181.06,330.85 174.52,341.31 174.32,350.76 		"/>
		<path d="M179.65,353.86c-0.27,0-0.48-0.22-0.48-0.48v-8.17l6.67-11.83l-4.58-1.92l-6.25,10l-0.2,9.32
			c-0.01,0.26-0.22,0.47-0.48,0.47c0,0-0.01,0-0.01,0c-0.27-0.01-0.48-0.23-0.47-0.5l0.2-9.59l6.83-10.92l6.35,2.65l-7.08,12.56
			v7.92C180.13,353.64,179.92,353.86,179.65,353.86z"/>
	</g>
	<g>
		<path d="M212.06,339.61c-0.02,0-0.04,0-0.07,0l-25.54-3.45c-0.27-0.04-0.45-0.28-0.42-0.55c0.04-0.27,0.28-0.45,0.55-0.42
			l25.54,3.45c0.27,0.04,0.45,0.28,0.42,0.55C212.51,339.44,212.3,339.61,212.06,339.61z"/>
	</g>
	<g>
		<path d="M247.96,342.64c-2.4,0-9.02-1.28-14.61-2.46c-0.26-0.06-0.43-0.31-0.37-0.57c0.06-0.26,0.31-0.43,0.57-0.37
			c4.6,0.97,11,2.19,13.64,2.44c-2.44-1.3-8.97-4.08-15-6.5l-17.17,2.59c-0.27,0.04-0.51-0.14-0.55-0.41
			c-0.04-0.26,0.14-0.51,0.41-0.55l17.43-2.63l0.12,0.05c16.46,6.58,16.58,7.44,16.62,7.77c0.03,0.2-0.05,0.39-0.22,0.51
			C248.69,342.59,248.4,342.64,247.96,342.64z"/>
	</g>
	<g>
		<path d="M246.32,348.43c-0.07,0-0.13-0.01-0.2-0.04c-3.56-1.58-18.91-6.77-19.06-6.82c-0.25-0.09-0.39-0.36-0.3-0.61
			c0.09-0.25,0.36-0.39,0.61-0.3c0.63,0.21,15.55,5.25,19.15,6.85c0.24,0.11,0.35,0.4,0.25,0.64
			C246.68,348.32,246.5,348.43,246.32,348.43z"/>
	</g>
	<g>
		<path d="M246.32,353.86c-0.09,0-0.19-0.03-0.27-0.08c-2.94-1.96-21.25-9.73-21.44-9.81c-0.25-0.1-0.36-0.39-0.26-0.64
			c0.11-0.25,0.39-0.36,0.64-0.26c0.76,0.32,18.58,7.88,21.6,9.9c0.22,0.15,0.28,0.45,0.13,0.67
			C246.63,353.78,246.47,353.86,246.32,353.86z"/>
	</g>
	<g>
		<path d="M233.85,353.86c-0.06,0-0.12-0.01-0.18-0.03l-13.56-5.39l-29.24,3.41c-0.27,0.03-0.51-0.16-0.54-0.43
			c-0.03-0.27,0.16-0.51,0.43-0.54l29.48-3.43l13.79,5.48c0.25,0.1,0.37,0.38,0.27,0.63C234.22,353.74,234.04,353.86,233.85,353.86z
			"/>
	</g>
	<g>
		<path d="M192.99,332.89c-0.04,0-0.08-0.01-0.13-0.02c-0.26-0.07-0.41-0.33-0.34-0.59c0.01-0.03,0.92-3.42,2.13-7.02
			c0.79-2.33-0.91-4.75-2.27-6.7c-0.77-1.1-1.43-2.05-1.62-2.88c-0.94-4.22-0.05-9.47,0.89-15.03c0.97-5.71,1.97-11.62,1.29-17.41
			c-1.12-9.61-2.6-38.75-2.62-39.05c-0.01-0.27,0.19-0.49,0.46-0.51c0.27-0.02,0.5,0.19,0.51,0.46c0.01,0.29,1.49,29.4,2.61,38.98
			c0.69,5.93-0.32,11.91-1.3,17.69c-0.93,5.46-1.8,10.62-0.9,14.65c0.14,0.65,0.79,1.57,1.47,2.54c1.49,2.13,3.34,4.77,2.4,7.56
			c-1.2,3.57-2.1,6.93-2.11,6.96C193.4,332.75,193.21,332.89,192.99,332.89z"/>
	</g>
	<g>
		<path d="M140.77,212.99c-0.27,0-0.54-0.09-0.75-0.24c-0.43-0.32-0.97-0.71-1.78-7.36c-0.54-4.43-1.95-7.17-3.87-7.5
			c-1.69-0.3-3.59,1.25-4.39,2.85c-0.28,0.56-0.83,1.95,0.09,2.81c0.49,0.46,0.51,1.23,0.05,1.71c-0.46,0.49-1.23,0.51-1.71,0.05
			c-1.46-1.37-1.68-3.49-0.59-5.66c1.2-2.39,4.05-4.66,6.98-4.15c2.19,0.38,4.98,2.35,5.86,9.6c0.52,4.28,0.89,5.55,1.02,5.88
			c0.14,0.16,0.24,0.35,0.28,0.57c0.13,0.66-0.3,1.29-0.95,1.42C140.92,212.99,140.84,212.99,140.77,212.99z M140.76,210.57
			c0.12,0,0.24,0.02,0.36,0.05c-0.17-0.05-0.37-0.07-0.59-0.03C140.6,210.58,140.68,210.57,140.76,210.57z"/>
	</g>
	<g>
		<path d="M142.96,217.52c-0.37,0-0.72-0.11-1.03-0.32c-0.41-0.28-0.69-0.7-0.79-1.19c-0.1-0.49,0-0.99,0.28-1.4
			c0.28-0.41,0.7-0.7,1.19-0.79c1.01-0.2,1.99,0.46,2.19,1.47v0c0.1,0.49,0,0.99-0.28,1.4c-0.28,0.41-0.7,0.69-1.19,0.79
			C143.21,217.51,143.08,217.52,142.96,217.52z M143.51,215.55l-1.09,0.22c0.06,0.3,0.35,0.5,0.66,0.44
			C143.38,216.15,143.57,215.85,143.51,215.55L143.51,215.55z M142.97,215.1c-0.04,0-0.07,0-0.11,0.01
			c-0.14,0.03-0.27,0.11-0.35,0.24c-0.08,0.12-0.11,0.28-0.08,0.42l1.09-0.22c-0.03-0.14-0.12-0.27-0.24-0.36
			C143.19,215.13,143.08,215.1,142.97,215.1z"/>
	</g>
	<g>
		<path d="M239.01,383.02c-2.85,0-28.18-7.92-34.3-11.09l-0.29-0.15l0.04-0.67l0.33-0.12l12.51-3.93l0.1,0.01l32.48,3.89
			c0.24,0.03,0.44,0.19,0.53,0.41c0.08,0.22,0.04,0.47-0.12,0.65c-3.56,3.98-9.73,10.71-11.13,10.99
			C239.13,383.02,239.08,383.02,239.01,383.02z M206.19,371.57c8.05,3.72,30.95,10.49,32.75,10.49c0.02,0,0.04,0,0.05,0
			c0.75-0.19,5-4.45,10.16-10.21l-31.75-3.8L206.19,371.57z"/>
	</g>
	<g>
		<path d="M240.69,388.95c-2.39,0-24.03-8.9-36.93-14.31c-0.36-0.15-0.56-0.54-0.48-0.92l0.02-0.08l1.21-2.06l0.84,0.49l-1.03,1.75
			c16.38,6.86,34.59,14.17,36.24,14.18c1.32-0.64,10.53-12.76,11.21-14.29c-0.08-0.24-0.94-0.94-1.82-1.46l0.49-0.84
			c0.91,0.53,2.42,1.55,2.3,2.45c-0.13,0.91-10.27,14.53-11.89,15.07C240.8,388.94,240.75,388.95,240.69,388.95z M240.59,388
			L240.59,388L240.59,388z M251.78,373.66L251.78,373.66L251.78,373.66z"/>
	</g>
	<g>
		<path d="M235.86,378.09c-1.96,0-3.5-1.01-3.5-2.29c0-1.29,1.54-2.29,3.5-2.29c1.96,0,3.5,1.01,3.5,2.29
			C239.36,377.09,237.82,378.09,235.86,378.09z M235.86,374.47c-1.49,0-2.53,0.7-2.53,1.33s1.04,1.33,2.53,1.33
			c1.49,0,2.53-0.7,2.53-1.33S237.35,374.47,235.86,374.47z"/>
	</g>
	<g>
		<path d="M216.8,371.56c-0.78,0-1.34-0.39-1.34-0.94s0.56-0.94,1.34-0.94c0.78,0,1.34,0.39,1.34,0.94S217.58,371.56,216.8,371.56z
			 M217.22,370.75L217.22,370.75L217.22,370.75z"/>
	</g>
	<g>
		<path d="M213.6,385.74h-4.79c-0.27,0-0.48-0.22-0.48-0.48s0.22-0.48,0.48-0.48h4.26l0.83-1.3l2.68-1.36
			c0.24-0.12,0.53-0.03,0.65,0.21c0.12,0.24,0.03,0.53-0.21,0.65l-2.45,1.24L213.6,385.74z"/>
	</g>
	<g>
		<path d="M224.07,397.81c-0.27,0-0.48-0.21-0.48-0.48l-0.1-8.37l0.72,0.99l-0.3-4.67c-0.02-0.27,0.19-0.5,0.45-0.51
			c0.26-0.01,0.5,0.19,0.51,0.45l0.51,8L224.5,392l0.06,5.32C224.56,397.59,224.35,397.81,224.07,397.81
			C224.08,397.81,224.08,397.81,224.07,397.81z"/>
	</g>
	<g>
		<path d="M218.26,387.24c-0.15,0-0.31-0.07-0.4-0.21c-0.15-0.22-0.09-0.52,0.13-0.67l2.1-1.43l0.85-1.89
			c0.11-0.24,0.4-0.35,0.64-0.24c0.24,0.11,0.35,0.4,0.24,0.64l-0.96,2.14l-2.33,1.59C218.45,387.22,218.36,387.24,218.26,387.24z"
			/>
	</g>
	<g>
		<path d="M273.73,370.37c-3.56,0-7.76-1.22-11.39-2.28c-3.93-1.14-8-2.33-8.76-1.02l-1.03,1.79l0.13-2.06
			c0.03-0.45,0.73-11.15,4.75-14.14c0.98-0.73,2.07-0.96,3.25-0.68c6.89,1.61,21.24,4.95,21.09,10.23
			c-0.09,3.17-1.05,5.45-2.86,6.77C277.52,369.98,275.73,370.37,273.73,370.37z M255.18,365.53c1.83,0,4.44,0.76,7.44,1.63
			c5.46,1.59,12.25,3.57,15.73,1.03c1.58-1.15,2.38-3.12,2.47-6.01c0.13-4.49-14.74-7.95-20.34-9.26c-0.9-0.21-1.71-0.04-2.46,0.52
			c-2.95,2.2-3.98,9.51-4.27,12.32C254.15,365.6,254.63,365.53,255.18,365.53z"/>
	</g>
	<g>
		<g>
			<line class="st3" x1="257.58" y1="357.8" x2="275.78" y2="364.64"/>
		</g>
		<g>
			<g>
				<path d="M259.85,359.14c-0.06,0-0.11-0.01-0.17-0.03l-2.27-0.85c-0.25-0.09-0.38-0.37-0.28-0.62c0.09-0.25,0.38-0.38,0.62-0.28
					l2.27,0.85c0.25,0.09,0.38,0.37,0.28,0.62C260.23,359.02,260.04,359.14,259.85,359.14z"/>
			</g>
			<g>
				<path d="M270.78,363.24c-0.06,0-0.11-0.01-0.17-0.03l-2.73-1.03c-0.25-0.09-0.38-0.37-0.28-0.62c0.09-0.25,0.37-0.38,0.62-0.28
					l2.73,1.03c0.25,0.09,0.38,0.37,0.28,0.62C271.16,363.12,270.97,363.24,270.78,363.24z M265.31,361.19
					c-0.06,0-0.11-0.01-0.17-0.03l-2.73-1.03c-0.25-0.09-0.38-0.37-0.28-0.62c0.09-0.25,0.38-0.38,0.62-0.28l2.73,1.03
					c0.25,0.09,0.38,0.37,0.28,0.62C265.69,361.07,265.51,361.19,265.31,361.19z"/>
			</g>
			<g>
				<path d="M275.78,365.12c-0.06,0-0.11-0.01-0.17-0.03l-2.27-0.85c-0.25-0.09-0.38-0.37-0.28-0.62c0.09-0.25,0.38-0.38,0.62-0.28
					l2.27,0.85c0.25,0.09,0.38,0.37,0.28,0.62C276.16,365,275.97,365.12,275.78,365.12z"/>
			</g>
		</g>
	</g>
	<g>
		<path d="M197.99,335.29c-0.25,0-0.46-0.19-0.48-0.45c-0.02-0.27,0.18-0.5,0.45-0.52l41.19-3c0.26-0.02,0.5,0.18,0.52,0.45
			c0.02,0.27-0.18,0.5-0.45,0.52l-41.19,3C198.01,335.29,198,335.29,197.99,335.29z"/>
	</g>
	<g>
		<path d="M360.4,324.73c-0.07,0-0.13,0-0.2,0c-2.54-0.05-4.59-1.01-5.61-2.64c-0.93-1.48-0.95-3.35-0.07-5.27
			c1.83-4,7.17-7.2,11.98-7.2c0.07,0,0.13,0,0.2,0c2.54,0.05,4.59,1.01,5.61,2.64c0.93,1.48,0.95,3.35,0.07,5.27
			C370.55,321.54,365.21,324.73,360.4,324.73z M366.49,310.59c-4.46,0-9.4,2.94-11.09,6.63c-0.74,1.62-0.74,3.16,0.01,4.35
			c0.85,1.35,2.6,2.15,4.81,2.19c0.06,0,0.12,0,0.19,0c4.46,0,9.4-2.94,11.09-6.63l0,0c0.74-1.62,0.74-3.16-0.01-4.35
			c-0.85-1.35-2.6-2.15-4.81-2.19C366.61,310.59,366.55,310.59,366.49,310.59z"/>
	</g>
	<g>
		<path d="M252.63,358.28h-38.79c-0.27,0-0.48-0.22-0.48-0.48s0.22-0.48,0.48-0.48h38.79c0.27,0,0.48,0.22,0.48,0.48
			S252.9,358.28,252.63,358.28z"/>
	</g>
	<g>
		<g>
			<path d="M167.68,194.74c0,0,7.29-4.88,5.74-10.19c-1.15-3.94-1.95-13.29,1.87-12.29c10.18,2.68,42.66-0.71,38.83-17.89
				c-3.85-12.15-25.05-4.99-44.06,6.42l-3.23,3.03c0,0-16.47-1.78-7.73,18.24C159.1,182.06,161.11,189.1,167.68,194.74z"/>
		</g>
		<g>
			<path class="st2" d="M179.87,216.35c0,0,16.84,8.35,21.88,10.7c0,0-0.07-4.12-2.22-6.32l-2.31-2.19
				C197.21,218.53,185.1,219.21,179.87,216.35z"/>
		</g>
		<g>
			<path d="M170.07,185.43h-7.99c-0.27,0-0.48-0.22-0.48-0.48s0.22-0.48,0.48-0.48h7.99c0.27,0,0.48,0.22,0.48,0.48
				S170.33,185.43,170.07,185.43z"/>
		</g>
		<g>
			<path d="M170.07,188.25h-6.14c-0.27,0-0.48-0.22-0.48-0.48s0.22-0.48,0.48-0.48h6.14c0.27,0,0.48,0.22,0.48,0.48
				S170.33,188.25,170.07,188.25z"/>
		</g>
		<g>
			<path d="M166.64,205.25c-0.96,0-1.66-0.31-2.06-0.55c-1.67-0.99-2.51-3.14-2-5.13c0.54-2.12,2.46-3.48,5.17-3.69
				c0-0.01,0.01-0.03,0.01-0.04c0.09-0.25,0.37-0.38,0.62-0.29c0.3,0.11,0.47,0.4,0.42,0.72c-0.05,0.32-0.31,0.55-0.63,0.56
				c-2.5,0.09-4.19,1.18-4.65,2.99c-0.4,1.55,0.27,3.29,1.56,4.06c1.53,0.91,3.6,0.31,5.68-1.62c0.2-0.18,0.5-0.17,0.68,0.02
				c0.18,0.2,0.17,0.5-0.02,0.69C169.49,204.74,167.86,205.25,166.64,205.25z"/>
		</g>
		<g>
			<path d="M174.7,231.08c-0.02,0-0.04,0-0.07,0c-0.27-0.04-0.45-0.28-0.41-0.55c2.64-18.87-2.26-24.76-2.31-24.82
				c-0.17-0.2-0.15-0.51,0.05-0.68c0.2-0.18,0.51-0.16,0.68,0.04c0.22,0.24,5.26,6.19,2.54,25.59
				C175.15,230.9,174.94,231.08,174.7,231.08z"/>
		</g>
		<g>
			<path d="M199.03,232.02c-0.2,0-0.38-0.12-0.45-0.32c-0.09-0.25,0.03-0.53,0.28-0.62c0.1-0.04,2.28-0.92,2.42-4.05
				c0.14-3.27-1.98-5.69-2-5.72c-0.18-0.2-0.16-0.51,0.04-0.68c0.2-0.18,0.51-0.16,0.68,0.04c0.1,0.11,2.4,2.73,2.25,6.4
				c-0.16,3.8-2.92,4.87-3.04,4.92C199.14,232.01,199.08,232.02,199.03,232.02z"/>
		</g>
		<g>
			<path class="st1" d="M184.41,197.68c-3.91,0-7.09-3.18-7.09-7.09s3.18-7.09,7.09-7.09s7.09,3.18,7.09,7.09
				S188.32,197.68,184.41,197.68z M184.41,184.48c-3.37,0-6.12,2.74-6.12,6.12c0,3.37,2.74,6.12,6.12,6.12s6.12-2.74,6.12-6.12
				C190.53,187.22,187.78,184.48,184.41,184.48z"/>
		</g>
		<g>
			<path class="st1" d="M201.96,194.76c-3.6,0-6.52-3.26-6.52-7.26s2.93-7.26,6.52-7.26c3.6,0,6.52,3.26,6.52,7.26
				S205.56,194.76,201.96,194.76z M201.96,181.21c-3.06,0-5.56,2.82-5.56,6.29s2.49,6.29,5.56,6.29c3.06,0,5.55-2.82,5.55-6.29
				S205.02,181.21,201.96,181.21z"/>
		</g>
		<g>
			<path d="M181.08,190.61c-0.2,0-0.39-0.13-0.46-0.33c-0.09-0.25,0.05-0.53,0.3-0.61c2.89-0.98,3.06-2.86,3.07-2.94
				c0.02-0.27,0.27-0.47,0.52-0.45c0.27,0.02,0.47,0.24,0.45,0.51c-0.01,0.11-0.18,2.6-3.72,3.8
				C181.18,190.61,181.13,190.61,181.08,190.61z"/>
		</g>
		<g>
			<path d="M203.42,185.98c-1.6,0-3.16-1.84-3.36-2.08c-0.17-0.21-0.14-0.51,0.07-0.68c0.21-0.17,0.51-0.14,0.68,0.07
				c0.47,0.57,2.04,2.11,3.03,1.63c0.24-0.12,0.53-0.02,0.65,0.23c0.12,0.24,0.02,0.53-0.23,0.65
				C203.99,185.92,203.7,185.98,203.42,185.98z"/>
		</g>
		<g>
			<path d="M184.8,192.91c-0.63,0-1.14-0.51-1.14-1.14c0-0.63,0.51-1.14,1.14-1.14s1.14,0.51,1.14,1.14
				C185.95,192.4,185.43,192.91,184.8,192.91z M184.8,191.59c-0.1,0-0.18,0.08-0.18,0.18s0.08,0.18,0.18,0.18s0.18-0.08,0.18-0.18
				S184.9,191.59,184.8,191.59z"/>
		</g>
		<g>
			<path d="M201.09,189.59c-0.63,0-1.14-0.51-1.14-1.14c0-0.63,0.51-1.14,1.14-1.14s1.14,0.51,1.14,1.14
				C202.24,189.08,201.72,189.59,201.09,189.59z M201.09,188.27c-0.1,0-0.18,0.08-0.18,0.18s0.08,0.18,0.18,0.18
				s0.18-0.08,0.18-0.18S201.19,188.27,201.09,188.27z"/>
		</g>
		<g>
			<path d="M192.96,204.07c-0.12,0-0.25,0-0.38,0c-0.27-0.01-0.48-0.23-0.47-0.5c0.01-0.26,0.22-0.47,0.48-0.47c0,0,0.01,0,0.01,0
				c2.63,0.06,4.25-0.5,4.83-1.65c1-2.01-1.32-5.64-2.3-6.87c-0.17-0.21-0.13-0.51,0.08-0.68c0.21-0.17,0.51-0.13,0.68,0.08
				c0.16,0.2,3.88,4.94,2.41,7.9C197.57,203.34,195.78,204.07,192.96,204.07z"/>
		</g>
		<g>
			<path d="M192.73,212.06c-0.08,0-0.15-0.02-0.23-0.06c-0.24-0.13-0.33-0.42-0.2-0.65c0.02-0.04,2.44-4.48,7.59-3.25
				c0.32,0.08,0.55,0.34,0.59,0.67c0.04,0.33-0.13,0.63-0.43,0.78l-2.38,1.16c-0.24,0.12-0.53,0.02-0.65-0.22
				c-0.12-0.24-0.02-0.53,0.22-0.65l1.86-0.91c-4.01-0.63-5.86,2.72-5.94,2.87C193.07,211.96,192.91,212.06,192.73,212.06z"/>
		</g>
		<g>
			
				<rect x="190.99" y="188.29" transform="matrix(0.9911 -0.1328 0.1328 0.9911 -23.3562 27.365)" class="st1" width="4.95" height="0.97"/>
		</g>
		<g>
			<path d="M214.06,165.49l-0.11-0.43c-0.07-0.37,0.13-0.49,0.63-0.66c0.45-0.33,1.28-1.52,1.91-2.41c1.57-2.24,3.35-4.77,5.19-4.77
				c0.02,0,0.03,0,0.05,0c0.77,0.02,1.45,0.48,2.02,1.37c0.36,0.57,0.43,1.19,0.21,1.79c-0.81,2.19-5.42,3.82-8.81,4.86
				c-0.06,0.02-0.12,0.04-0.18,0.05c-0.16,0.1-0.32,0.15-0.49,0.16L214.06,165.49z M214.46,164.97L214.46,164.97L214.46,164.97z
				 M221.69,158.19c-1.34,0-3.1,2.52-4.4,4.36c-0.35,0.49-0.65,0.93-0.93,1.29c4-1.33,6.25-2.61,6.69-3.79
				c0.12-0.32,0.08-0.62-0.12-0.94c-0.39-0.61-0.79-0.91-1.22-0.92C221.7,158.19,221.7,158.19,221.69,158.19z"/>
		</g>
		<g>
			<path d="M228.3,174.87c-1.88,0-4.76-1.36-7.77-2.77c-2.72-1.28-5.54-2.61-6.93-2.53l-0.48,0.01l-0.06-0.47
				c-0.01-0.18,0.05-0.48,0.57-0.53c0.16-0.02,15.98-1.53,16.71,3.53c0.16,1.13-0.06,1.93-0.67,2.38
				C229.31,174.75,228.84,174.87,228.3,174.87z M216.78,169.36c1.27,0.49,2.69,1.16,4.16,1.85c3.14,1.48,7.04,3.31,8.15,2.49
				c0.3-0.22,0.39-0.71,0.29-1.46c-0.07-0.45-0.33-0.84-0.81-1.19C226.32,169.41,220.47,169.26,216.78,169.36z"/>
		</g>
		<g>
			<path d="M190.79,218.97c-0.01,0-0.03,0-0.04,0c-3.97-0.35-7.77-1.26-11.31-2.69c-0.25-0.1-0.37-0.38-0.27-0.63
				c0.1-0.25,0.38-0.37,0.63-0.27c3.45,1.4,7.17,2.28,11.04,2.63c0.27,0.02,0.46,0.26,0.44,0.53
				C191.25,218.78,191.04,218.97,190.79,218.97z"/>
		</g>
		<g>
			<path d="M194.35,219.13c-1.18,0-2.38-0.05-3.6-0.16c-0.27-0.02-0.46-0.26-0.44-0.53c0.02-0.27,0.26-0.46,0.53-0.44
				c8.71,0.78,16.84-1.44,18.93-5.16c2.21-3.94-1.37-30.14-3.58-43.44c-0.04-0.26,0.13-0.51,0.4-0.56c0.26-0.05,0.51,0.14,0.56,0.4
				c0.26,1.58,6.39,38.85,3.46,44.08C208.62,216.87,202.07,219.13,194.35,219.13z"/>
		</g>
		<g>
			<path class="st3" d="M199.93,168.18c-0.12,0-0.23-0.09-0.24-0.21c-0.02-0.13,0.08-0.25,0.21-0.27c0.07-0.01,6.68-0.81,9.68-5.11
				c1.48-2.11,1.85-4.74,1.11-7.8c-0.03-0.13,0.05-0.26,0.18-0.29c0.13-0.03,0.26,0.05,0.29,0.18c0.77,3.2,0.37,5.96-1.19,8.19
				c-3.13,4.48-9.74,5.28-10.02,5.31C199.95,168.18,199.94,168.18,199.93,168.18z"/>
		</g>
		<g>
			<path class="st3" d="M164.45,187.68c-0.07,0-0.14-0.03-0.19-0.09c-4.44-5.37-5.59-13.47-5.6-13.55
				c-0.02-0.13,0.07-0.25,0.21-0.27c0.13-0.02,0.25,0.07,0.27,0.21c0.01,0.08,1.15,8.04,5.5,13.31c0.09,0.1,0.07,0.26-0.03,0.34
				C164.56,187.66,164.5,187.68,164.45,187.68z"/>
		</g>
		<g>
			<path class="st3" d="M185.07,168.18c-0.13,0-0.24-0.1-0.24-0.23c-0.01-0.13,0.1-0.25,0.23-0.25c0.22-0.01,21.6-0.93,22.39-7.49
				c0.02-0.13,0.14-0.23,0.27-0.21c0.13,0.02,0.23,0.14,0.21,0.27C207.09,167.23,185.98,168.15,185.07,168.18
				C185.08,168.18,185.08,168.18,185.07,168.18z"/>
		</g>
	</g>
	<g>
		<path d="M160.2,149.14c-0.19,0-0.36-0.11-0.44-0.29c-0.11-0.24,0-0.53,0.25-0.64c4.41-1.96,9.77-3.99,15.5-5.87
			c6.98-2.29,13.66-4.07,18.81-5.02c8.38-1.55,8.82-0.2,8.99,0.31c0.57,1.75-6.71,5.63-6.79,5.67c-0.24,0.12-0.53,0.04-0.66-0.2
			c-0.13-0.24-0.04-0.53,0.2-0.66c3.58-1.9,6.11-3.95,6.3-4.54c-0.21-0.28-1.96-0.72-7.87,0.38c-5.11,0.95-11.75,2.72-18.69,4.99
			c-5.7,1.87-11.02,3.88-15.41,5.83C160.33,149.12,160.26,149.14,160.2,149.14z"/>
	</g>
	<g>
		<path d="M155.34,155.34c-1.67,0-2.77-0.3-3-1.02c-0.31-0.94,0.74-2.05,3.39-3.62c0.23-0.14,0.53-0.06,0.66,0.17
			c0.14,0.23,0.06,0.53-0.17,0.66c-3.03,1.79-2.96,2.48-2.96,2.49c0.09,0.27,1.73,0.79,7.89-0.35c5.11-0.95,11.75-2.72,18.69-4.99
			c3.51-1.15,6.88-2.36,10.02-3.59c0.25-0.1,0.53,0.03,0.63,0.27c0.1,0.25-0.03,0.53-0.27,0.63c-3.16,1.24-6.55,2.45-10.07,3.61
			C173.06,151.92,160.97,155.34,155.34,155.34z"/>
	</g>
	<g>
		<g>
			<path d="M155.67,120.57c-0.21,0-0.4-0.13-0.46-0.34l-6.74-21.61l0.47-0.14c7.55-2.32,27.59-8.78,29.55-10.77
				c0.42-0.42,0.83-0.36,1.04-0.28c2.31,0.85,3.67,16.14,4.03,20.81l0.03,0.34l-22.98,10.68c-0.24,0.11-0.53,0.01-0.64-0.24
				c-0.11-0.24-0.01-0.53,0.24-0.64l22.37-10.4c-0.71-9.05-2.17-18.97-3.34-19.62c-0.01,0.01-0.03,0.02-0.04,0.04
				c-2.39,2.42-25.76,9.72-29.49,10.87l6.45,20.68c0.08,0.26-0.06,0.53-0.32,0.61C155.77,120.56,155.72,120.57,155.67,120.57z"/>
		</g>
		<g>
			<path d="M158.14,104.04c-0.2,0-0.39-0.12-0.46-0.32c-0.09-0.25,0.04-0.53,0.29-0.62l12.9-4.56c0.25-0.09,0.53,0.04,0.62,0.3
				c0.09,0.25-0.04,0.53-0.29,0.62l-12.9,4.56C158.25,104.03,158.19,104.04,158.14,104.04z"/>
		</g>
		<g>
			<path d="M173.1,103.17c-0.05,0-0.11-0.01-0.16-0.03c-0.25-0.09-0.38-0.37-0.29-0.62l1.54-4.34l-4.47-2.71
				c-0.23-0.14-0.3-0.44-0.16-0.67c0.14-0.23,0.44-0.3,0.67-0.16l5.14,3.12l-1.81,5.09C173.49,103.05,173.3,103.17,173.1,103.17z"/>
		</g>
		<g>
			<path d="M163.19,110.5c-0.2,0-0.39-0.12-0.46-0.32c-0.09-0.25,0.04-0.53,0.29-0.62l12.9-4.56c0.25-0.09,0.53,0.04,0.62,0.3
				c0.09,0.25-0.04,0.53-0.29,0.62l-12.9,4.56C163.29,110.49,163.24,110.5,163.19,110.5z"/>
		</g>
		<g>
			<path d="M164.25,114.43c-0.09,0-0.17-0.02-0.25-0.07l-5.14-3.12l1.81-5.09c0.09-0.25,0.37-0.38,0.62-0.29
				c0.25,0.09,0.38,0.37,0.29,0.62l-1.54,4.34l4.47,2.71c0.23,0.14,0.3,0.44,0.16,0.67C164.58,114.34,164.42,114.43,164.25,114.43z"
				/>
		</g>
	</g>
	<g>
		<g>
			<path d="M250.56,120.85c-0.02,0-0.04,0-0.06,0c-0.21-0.02-20.72-2.43-27.42-3.93c-0.99-0.22-1.7-0.8-2.14-1.73
				c-2.42-5.21,5.48-20.5,5.82-21.15c0.12-0.24,0.42-0.33,0.65-0.21c0.24,0.12,0.33,0.42,0.21,0.65c-0.08,0.15-8.02,15.52-5.8,20.3
				c0.3,0.65,0.78,1.04,1.47,1.19c6.65,1.49,27.11,3.89,27.32,3.92c0.27,0.03,0.46,0.27,0.43,0.54
				C251.01,120.66,250.81,120.85,250.56,120.85z"/>
		</g>
		<g>
			<path d="M256.78,95.12c-0.02,0-0.05,0-0.07-0.01L229,90.85c-0.26-0.04-0.45-0.29-0.41-0.55c0.04-0.26,0.29-0.45,0.55-0.41
				l27.71,4.27c0.26,0.04,0.45,0.29,0.41,0.55C257.23,94.95,257.02,95.12,256.78,95.12z"/>
		</g>
		<g>
			<path d="M252.89,117.4c-0.03,0-0.06,0-0.1-0.01c-0.26-0.05-0.43-0.31-0.38-0.57l3.73-18.77c0.05-0.26,0.3-0.43,0.57-0.38
				c0.26,0.05,0.43,0.31,0.38,0.57l-3.73,18.77C253.32,117.24,253.12,117.4,252.89,117.4z"/>
		</g>
		<g>
			<path d="M245.34,114.63l-0.4-0.07c-1.43-0.26-14.01-2.54-15.42-3.22c-1.55-0.75,0.15-6.87,1.3-10.45
				c0.08-0.25,0.36-0.4,0.61-0.31c0.26,0.08,0.4,0.35,0.31,0.61c-1.45,4.52-2.26,8.78-1.78,9.3c0.94,0.45,9.18,2.05,14.74,3.05
				c0.39-1.12,1.59-4.6,2.96-9.13c0.08-0.26,0.34-0.4,0.6-0.32c0.26,0.08,0.4,0.35,0.32,0.6c-1.67,5.55-3.09,9.52-3.11,9.56
				L245.34,114.63z"/>
		</g>
		<g>
			<path d="M239.01,104.79l-6.05-7.04c-0.18-0.21-0.21-0.51-0.07-0.75c0.14-0.24,0.42-0.36,0.68-0.31l15.24,3.01
				c0.25,0.05,0.43,0.25,0.46,0.51c0.02,0.25-0.12,0.49-0.35,0.58L239.01,104.79z M234.31,97.82l4.98,5.8l8.02-3.24L234.31,97.82z"
				/>
		</g>
	</g>
	<g>
		<g>
			<path d="M84.75,157.67c-0.15,0-0.29-0.07-0.39-0.19c-0.16-0.21-0.12-0.52,0.1-0.68l23.6-17.69c0.21-0.16,0.52-0.12,0.68,0.1
				c0.16,0.21,0.12,0.52-0.1,0.68l-23.6,17.69C84.95,157.64,84.85,157.67,84.75,157.67z"/>
		</g>
		<g>
			<path d="M117.11,158.91c-2.91,0-5.39-1.85-5.53-1.96l-0.53-0.4l10.82-7.48l0.22,0.59c0.09,0.25,2.17,6.11-1.9,8.44
				C119.16,158.69,118.11,158.91,117.11,158.91z M112.74,156.56c1.24,0.75,4.3,2.24,6.97,0.7c2.68-1.54,2.04-5.2,1.65-6.66
				L112.74,156.56z"/>
		</g>
		<g>
			<path d="M110.47,154.57c-0.26,0-0.48-0.21-0.48-0.47l-0.3-11.78l10.42,5.3c0.24,0.12,0.33,0.41,0.21,0.65
				c-0.12,0.24-0.41,0.33-0.65,0.21l-8.97-4.56l0.26,10.16c0.01,0.27-0.2,0.49-0.47,0.5C110.48,154.57,110.48,154.57,110.47,154.57z
				"/>
		</g>
		<g>
			<path d="M94.22,175.59c-3.16,0-5.77-2.33-5.91-2.45l-0.5-0.45l11.43-6.52l0.16,0.61c0.07,0.26,1.64,6.27-2.62,8.25
				C95.92,175.43,95.05,175.59,94.22,175.59z M89.5,172.85c1.17,0.86,4.09,2.6,6.88,1.3c2.8-1.3,2.48-5.01,2.22-6.49L89.5,172.85z"
				/>
		</g>
		<g>
			<path d="M87.46,170.67c-0.01,0-0.02,0-0.03,0c-0.27-0.02-0.47-0.25-0.45-0.51l0.72-11.76l9.92,6.18c0.23,0.14,0.3,0.44,0.15,0.67
				c-0.14,0.23-0.44,0.3-0.67,0.16l-8.54-5.32l-0.62,10.14C87.93,170.48,87.72,170.67,87.46,170.67z"/>
		</g>
		<g>
			<path d="M112.4,172.16c-0.15,0-0.3-0.07-0.4-0.2l-14.53-20.38c-0.16-0.22-0.1-0.52,0.11-0.68c0.22-0.16,0.52-0.1,0.68,0.11
				l14.53,20.38c0.16,0.22,0.1,0.52-0.11,0.68C112.59,172.13,112.5,172.16,112.4,172.16z"/>
		</g>
		<g>
			<path d="M106.84,175.82c-0.16,0-0.31-0.08-0.41-0.22c-0.15-0.22-0.09-0.52,0.14-0.67l11.11-7.33c0.22-0.15,0.52-0.09,0.67,0.14
				c0.15,0.22,0.09,0.52-0.14,0.67l-11.11,7.33C107.03,175.79,106.94,175.82,106.84,175.82z"/>
		</g>
		<g>
			<path d="M106.88,179.27c-0.16,0-0.31-0.08-0.41-0.22c-0.15-0.22-0.08-0.52,0.14-0.67l14.24-9.25c0.22-0.15,0.52-0.08,0.67,0.14
				s0.08,0.52-0.14,0.67l-14.24,9.25C107.06,179.25,106.97,179.27,106.88,179.27z"/>
		</g>
	</g>
	<g>
		<g>
			<path d="M290.47,155.48c-0.06,0-0.11-0.01-0.17-0.03l-11.31-4.2l0.27-0.49c0.07-0.12,6.61-12.11,8.04-20.52l0.09-0.5l22.51,4.87
				l-0.23,0.54c-0.77,1.78-1.94,4.97-1.82,5.95c0.03,0.27-0.15,0.51-0.42,0.54c-0.27,0.04-0.51-0.16-0.54-0.42
				c-0.16-1.31,1.11-4.57,1.66-5.91l-20.38-4.4c-1.45,7.63-6.55,17.5-7.79,19.83l10.27,3.81c0.25,0.09,0.38,0.37,0.29,0.62
				C290.85,155.36,290.66,155.48,290.47,155.48z"/>
		</g>
		<g>
			<path d="M312.32,179.27c-0.19,0-0.38-0.02-0.56-0.06c-6.29-1.41-25.65-7.67-25.84-7.74l-0.75-0.24l0.56-0.56
				c0.08-0.08,7.63-7.73,7.74-14.64c0-0.27,0.23-0.48,0.49-0.48c0.27,0,0.48,0.22,0.48,0.49c-0.09,6.26-5.68,12.8-7.48,14.74
				c3.61,1.16,19.47,6.23,25.02,7.48c4.68,1.06,10.01-17.32,11.89-25.34c-6.93,0.5-25.16-7.86-25.96-8.23
				c-0.24-0.11-0.35-0.4-0.24-0.64c0.11-0.24,0.4-0.35,0.64-0.24c0.2,0.09,20.12,9.23,26.09,8.07l0.73-0.14l-0.16,0.73
				C324.32,155.27,318.71,179.27,312.32,179.27z"/>
		</g>
		<g>
			<path class="st12" d="M310.99,146.3c-1.87,5.77-1.49,5.73-1.49,5.73l2.8,0.49l1.6-5.36C313.9,147.17,311.22,145.58,310.99,146.3z
				"/>
			<path d="M312.64,153.08l-3.16-0.56l-0.2,0.02l-0.17-0.21c-0.19-0.23-0.42-0.52,1.42-6.18v0c0.07-0.22,0.23-0.38,0.45-0.46
				c0.74-0.28,2.31,0.55,3.17,1.07l0.32,0.19L312.64,153.08z M309.98,151.63l1.98,0.35l1.37-4.58c-0.79-0.44-1.59-0.77-1.92-0.8
				C310.35,149.84,310.06,151.13,309.98,151.63z M309.95,151.91L309.95,151.91L309.95,151.91z M311.45,146.45
				C311.45,146.45,311.45,146.45,311.45,146.45C311.45,146.45,311.45,146.45,311.45,146.45L311.45,146.45z"/>
		</g>
		<g>
			<path class="st10" d="M300.44,164.88l7.61-5.79c0.31-0.24,0.79-0.08,0.9,0.3l2.5,8.69c0.27,0.92-0.63,1.73-1.59,1.44l-8.97-2.69
				C299.97,166.55,299.71,165.43,300.44,164.88z"/>
			<path d="M310.25,170.05c-0.18,0-0.36-0.03-0.54-0.08l-8.97-2.69c-0.62-0.19-1.07-0.68-1.19-1.29c-0.11-0.58,0.11-1.14,0.59-1.5
				l7.61-5.79c0.27-0.21,0.64-0.27,0.97-0.16c0.33,0.11,0.59,0.37,0.69,0.7l2.5,8.69c0.17,0.58,0.01,1.19-0.42,1.62
				C311.17,169.87,310.72,170.05,310.25,170.05z M308.38,159.45c-0.01,0-0.03,0-0.04,0.01l-7.61,5.79
				c-0.25,0.19-0.24,0.45-0.22,0.55c0.04,0.2,0.19,0.44,0.51,0.54l8.97,2.69c0.3,0.09,0.61,0.02,0.82-0.18
				c0.18-0.18,0.24-0.42,0.17-0.66l-2.5-8.69c-0.01-0.03-0.05-0.05-0.06-0.05C308.41,159.46,308.4,159.45,308.38,159.45z
				 M300.44,164.88L300.44,164.88L300.44,164.88z"/>
		</g>
		<g>
			<path d="M306.83,165.02c-0.05,0-0.09-0.01-0.14-0.02c-0.26-0.08-0.4-0.35-0.33-0.6l0.75-2.49c0.08-0.26,0.35-0.4,0.6-0.33
				c0.26,0.08,0.4,0.35,0.33,0.6l-0.75,2.49C307.23,164.89,307.04,165.02,306.83,165.02z"/>
		</g>
		<g>
			<path d="M306.25,166.98c-0.05,0-0.09-0.01-0.14-0.02c-0.26-0.08-0.4-0.35-0.32-0.6l0.09-0.29c0.08-0.26,0.35-0.4,0.6-0.32
				c0.26,0.08,0.4,0.35,0.32,0.6l-0.09,0.29C306.65,166.84,306.46,166.98,306.25,166.98z"/>
		</g>
		<g>
			<path d="M293.41,143.51l-0.12-0.43c-0.02-0.06-0.43-1.42-1.72-1.34c-1.95,0.14-3.74-2.05-3.81-2.14
				c-0.17-0.21-0.14-0.51,0.07-0.68c0.21-0.17,0.51-0.14,0.68,0.07c0.43,0.52,1.79,1.87,2.99,1.78c1.4-0.1,2.21,0.86,2.56,1.62
				l1.61-0.31c0.26-0.05,0.52,0.12,0.57,0.38c0.05,0.26-0.12,0.52-0.38,0.57L293.41,143.51z"/>
		</g>
		<g>
			<path d="M294.21,148.22c-0.11,0-0.22-0.04-0.31-0.11c-0.02-0.02-1.83-1.53-3.5-1.65c-1.96-0.14-4.84-2.12-4.96-2.21
				c-0.22-0.15-0.28-0.45-0.12-0.67c0.15-0.22,0.45-0.28,0.67-0.12c0.03,0.02,2.78,1.91,4.48,2.04c1.98,0.14,3.97,1.8,4.05,1.87
				c0.2,0.17,0.23,0.48,0.06,0.68C294.49,148.16,294.35,148.22,294.21,148.22z"/>
		</g>
	</g>
	<g>
		<path d="M263.46,212.27c-3.6,0-8.3-0.77-13.7-3.47c-9.22-4.62-16.68-9.27-23.26-13.38c-4.68-2.92-8.72-5.44-12.28-7.22
			c-0.24-0.12-0.34-0.41-0.22-0.65c0.12-0.24,0.41-0.34,0.65-0.22c3.59,1.8,7.65,4.33,12.36,7.26c6.56,4.09,14,8.74,23.19,13.34
			c11.85,5.94,20.37,2.16,20.46,2.12c0.24-0.11,0.53,0,0.64,0.24c0.11,0.24,0,0.53-0.24,0.64
			C270.85,211.03,268.04,212.27,263.46,212.27z"/>
	</g>
	<g>
		<path d="M262.53,260.46c-0.12,0-0.25-0.05-0.34-0.14c-0.19-0.19-0.19-0.5,0-0.69c24.94-24.73,32.4-49.1,34.09-55.97l0.05-0.18
			c0.31-1.24-1.75-4.05-3.18-5.58c-23.71-9.87-39.89-12.44-40.06-12.46c-0.26-0.04-0.45-0.29-0.41-0.55
			c0.04-0.26,0.29-0.44,0.55-0.41c0.16,0.02,16.51,2.61,40.38,12.56l0.1,0.04l0.07,0.08c0.41,0.44,4.03,4.37,3.48,6.56l-0.04,0.18
			c-1.71,6.94-9.23,31.52-34.35,56.43C262.78,260.41,262.66,260.46,262.53,260.46z"/>
	</g>
	<g>
		<path d="M243.4,182.82c-0.05,0-0.09-0.01-0.14-0.02l-29.87-9.05c-0.26-0.08-0.4-0.35-0.32-0.6c0.08-0.26,0.35-0.4,0.6-0.32
			l29.87,9.05c0.26,0.08,0.4,0.35,0.32,0.6C243.8,182.68,243.61,182.82,243.4,182.82z"/>
	</g>
	<g>
		<path d="M223.38,272.97c-1.85,0-3.95-0.1-6.28-0.36c-5.33-0.6-6.88-0.46-7.32-0.35c-0.02,0.07-0.06,0.14-0.12,0.2
			c-0.18,0.2-0.49,0.2-0.68,0.02c-0.16-0.15-0.26-0.42-0.13-0.69c0.18-0.39,0.48-1.03,8.37-0.14c8.69,0.98,14.36-0.42,14.42-0.43
			c0.26-0.07,0.52,0.09,0.59,0.35c0.07,0.26-0.09,0.52-0.35,0.59C231.69,272.19,228.57,272.97,223.38,272.97z M209.65,271.78
			C209.65,271.78,209.65,271.78,209.65,271.78C209.65,271.78,209.65,271.78,209.65,271.78z"/>
	</g>
	<g>
		<path d="M227.21,275.98c-0.27,0-0.48-0.22-0.48-0.48v-5.62l-0.35,1.89c-0.05,0.26-0.3,0.44-0.56,0.39
			c-0.26-0.05-0.44-0.3-0.39-0.56l1.31-7.15l0.96,0.09v10.96C227.7,275.76,227.48,275.98,227.21,275.98z"/>
	</g>
	<g>
		<path d="M116.27,333.01c-0.26,0-0.48-0.21-0.48-0.47l-1.83-85.11c-0.39-4.61,3.61-8.74,8.92-9.19l41.56-2.39
			c0.26-0.02,0.5,0.19,0.51,0.46c0.02,0.27-0.19,0.5-0.46,0.51l-41.55,2.39c-4.76,0.4-8.36,4.06-8.02,8.17l1.83,85.14
			c0.01,0.27-0.21,0.49-0.47,0.5C116.28,333.01,116.27,333.01,116.27,333.01z"/>
	</g>
</g>
</svg>
