<?xml version="1.0" encoding="utf-8"?>
<!-- Generator: Adobe Illustrator 24.3.0, SVG Export Plug-In . SVG Version: 6.00 Build 0)  -->
<svg version="1.1" xmlns="http://www.w3.org/2000/svg" xmlns:xlink="http://www.w3.org/1999/xlink" x="0px" y="0px"
	 viewBox="0 0 1000 1000" style="enable-background:new 0 0 1000 1000;" xml:space="preserve">
<style type="text/css">
	.st0{display:none;}
	.st1{fill:#008CFF;}
	.st2{fill:none;stroke:#000000;stroke-width:2;stroke-linecap:round;stroke-miterlimit:10;}
	.st3{fill:#0061C1;}
	.st4{fill:none;stroke:#008CFF;stroke-width:2;stroke-linecap:round;stroke-miterlimit:10;}
	.st5{fill:#FF0000;stroke:#000000;stroke-width:2;stroke-linecap:round;stroke-miterlimit:10;}
	.st6{fill:#FFCE00;stroke:#000000;stroke-width:2;stroke-linecap:round;stroke-miterlimit:10;}
	.st7{fill:none;stroke:#FFFFFF;stroke-linecap:round;stroke-miterlimit:10;}
	.st8{fill:#E0E0E0;}
	.st9{fill:#FFCE00;}
	.st10{fill:#DDDDDD;}
	.st11{fill:#FFFFFF;stroke:#000000;stroke-width:2;stroke-linecap:round;stroke-miterlimit:10;}
	.st12{fill:none;stroke:#000000;stroke-width:5;stroke-linecap:round;stroke-miterlimit:10;}
	.st13{fill:none;stroke:#000000;stroke-width:2;stroke-miterlimit:10;}
	.st14{fill:#FFFFFF;}
	
		.st15{fill:none;stroke:#000000;stroke-width:2;stroke-linecap:round;stroke-miterlimit:10;stroke-dasharray:3.7289,3.7289,3.7289,3.7289;}
	.st16{fill:#7778F7;}
	
		.st17{fill:none;stroke:#000000;stroke-width:2;stroke-linecap:round;stroke-miterlimit:10;stroke-dasharray:6.0217,6.0217,6.0217,6.0217;}
	.st18{fill:#4046B5;}
	.st19{fill:none;stroke:#7778F7;stroke-width:2;stroke-miterlimit:10;}
	.st20{fill:#00A651;}
	.st21{fill:none;stroke:#000000;stroke-linecap:round;stroke-miterlimit:10;}
	.st22{fill:none;stroke:#068C42;stroke-linecap:round;stroke-miterlimit:10;}
	.st23{fill:#4C4C4E;}
	.st24{fill:#369B1B;}
	.st25{fill:#FDB71A;}
	.st26{fill:#DE3704;}
	.st27{fill:#008ED9;}
	.st28{fill:#EFEFEF;}
	.st29{fill:#EAEAEA;}
	.st30{fill:#009118;}
	.st31{fill:#FC1515;}
	.st32{fill:url(#SVGID_1_);}
	.st33{fill:#FDB71A;enable-background:new    ;}
	.st34{opacity:0.1;fill:#369B1B;}
	.st35{opacity:0.1;fill:#FDB71A;}
	.st36{fill:#EF0606;}
	.st37{fill:none;stroke:#939393;stroke-width:2;stroke-linecap:round;stroke-miterlimit:10;}
	.st38{fill:#FFFFFF;stroke:#21409A;stroke-width:2;stroke-miterlimit:10;}
	.st39{fill:#005CEB;}
	.st40{fill:#DEDEE8;}
	.st41{fill:#DE3704;enable-background:new    ;}
	.st42{fill:#BF3A11;}
	.st43{fill:#EEEEEE;}
</style>
<g id="Layer_1" class="st0">
</g>
<g id="Layer_3">
</g>
<g id="Layer_2">
</g>
<g id="Layer_5" class="st0">
</g>
<g id="Layer_6">
</g>
<g id="Layer_4">
</g>
<g id="Layer_7">
</g>
<g id="Layer_8">
	<linearGradient id="SVGID_1_" gradientUnits="userSpaceOnUse" x1="341.1627" y1="247.4354" x2="466.3456" y2="489.8949">
		<stop  offset="0" style="stop-color:#A50000"/>
		<stop  offset="1" style="stop-color:#DE3704"/>
	</linearGradient>
	<path class="st32" d="M474.43,326.13c0,0,40.84,44.31,119.06,84.31S921.5,526,813.94,718.89L812.16,654c0,0-19.56,9.78-76.44-24
		c-56.89-33.78-152.89,14.22-175.11,20.44s-60.44,32.89-137.78-7.11s-107.25,30.01-107.25,30.01s21.92,43.76,37.92,58.88
		c0,0-113.78,13.08-123.56-109.9C220.16,499.33,264.02,310,264.02,310s48.16-98.83,56.15-90.91c11.25,11.16,32.55,12.42,56.56,1.97
		C391.66,214.57,474.43,326.13,474.43,326.13z"/>
	<path class="st14" d="M290.53,396.44l0.23,10.89c0,0,23.9,16.1,53.15,12.44c29.25-3.66,35.5,4.1,58.61-19.78l-1.2-7.75
		c0,0-25.25,17.53-63.09,13.72C315.8,403.71,306.53,405.78,290.53,396.44z"/>
	<path class="st33" d="M403.77,212.44c0,0,14.52,5.04,29.33,9.19c14.81,4.15,27.85,39.11,27.85,39.11s31.41,64.59,27.26,77.04
		c-4.15,12.44-55.11,77.04-55.11,77.04l-14.81-17.19l35.56-67.56l-26.67-42.67c-26.07,65.78-27.26,107.21-27.26,107.21
		s-15.56,11.98-54.67,12.86c-39.41,0.89-55.33-9.78-55.33-9.78s2.15-11.33,4.52-22c2.37-10.67-24.89-87.7-24.89-87.7
		s-18.37,18.37-36.15,45.04c-17.78,26.67-36.74,0-36.74,0s-14.81-109.63-5.93-102.14c8.89,7.49,26.67-6.9,26.67-6.9l7.7,56.3
		c0,0,23.11-43.85,27.85-54.52c4.74-10.67,41.48-13.94,41.48-13.94l8.66,0.61l49.62,19.07l49.27-21.44"/>
	<polygon class="st33" points="333.2,198.52 347.98,186.48 331.42,186.48 	"/>
	<path d="M348.31,156.89l4.44-6.89v-7.11c0,0,11.11-7.78,4.44-14c-6.67-6.22-22.69-1.68-24.67-2.89
		c-19.33-11.78-14.51-28.22,4.22-21.11c13.09,4.97,41.56,2.67,47.33,24s1.78,24-5.11,32.67s-10,18.67-10,18.67
		s-11.26-8.44-11.3-14.22c-0.04-5.78,7.96-8.89,3.74-13.78C356.69,146.75,348.31,156.89,348.31,156.89z"/>
	<path class="st2" d="M332.66,128.59c0,0-24.14,55.56-10.43,56.94c21.04,2.12,18.46,0.12,28.74-0.64"/>
	<line class="st2" x1="331.42" y1="189.93" x2="331.42" y2="210.07"/>
	<path class="st2" d="M366.97,182.52c0,0-4.44,12.59,0,25.19"/>
	<path class="st41" d="M328.16,190.98c0,0-6.5,1.04-7.99,4.89c0,0-4.75-1.78-10.67,5.04c0,0-16,1.19-11.85,5.04
		c4.15,3.85,48.59,22.22,53.33,20.74c4.74-1.48,48.89-18.37,50.07-20.74c1.19-2.37-1.19-8.3-9.78-6.52c0,0-6.52-7.11-13.04-2.07
		c0,0-3.56-10.96-11.26-8.3c0,0,5.63,17.19-5.04,23.41c-10.67,6.22-17.78,5.04-22.81,1.19C334.08,209.8,330.23,210.69,328.16,190.98
		z"/>
	<path class="st2" d="M293.49,211.83c0,0-36.74,3.28-41.48,13.94c-4.74,10.67-27.85,54.52-27.85,54.52l-7.7-56.3
		c0,0-17.78,14.39-26.67,6.9c-8.89-7.49,5.93,102.14,5.93,102.14s18.96,26.67,36.74,0C250.23,306.37,268.6,288,268.6,288
		s27.26,77.04,24.89,87.7c-2.37,10.67-2.96,20.74-2.96,20.74s14.81,10.37,54.22,9.48c39.11-0.88,56.58-13.68,56.58-13.68
		s-1.17-39.07,24.9-104.84l26.67,42.67l-35.56,67.56l14.81,17.19c0,0,50.96-64.59,55.11-77.04c4.15-12.44-27.26-77.04-27.26-77.04
		s-13.04-34.96-27.85-39.11s-31.11-11.56-31.11-11.56"/>
	<path d="M290.76,407.34c0,0,63.77,27.03,111.77-7.34l6.52,114.96l34.96,277.33c0,0-15.41,13.04-39.11,6.52l-52.74-282.07
		c0,0-2.96-4.74-5.93,5.33c-2.96,10.07-54.52,274.37-54.52,274.37s-22.52,10.07-37.33-4.74c0,0,26.67-272.59,28.44-299.26
		C284.6,465.78,290.76,407.34,290.76,407.34z"/>
	<path class="st2" d="M412.75,803.11v11.56c0,0,11.56,9.33,15.11,8.44c3.56-0.89,17.78,24,39.56,15.56c0,0,9.33-2.69-4.44-16.9
		s-19.13-20.03-21.34-27.78"/>
	<path class="st2" d="M256.96,793.98c0,0-5.55,13.75-16.66,23.22c-11.11,9.47-14.22,24.08,0,23.22c14.22-0.86,28.44-18.2,28.44-18.2
		l8.44-2.22l10.22-7.11v-14.94"/>
	<path class="st2" d="M192.16,226.96c0,0,19.11-91.41,23.11-90.67c6.26,1.16-0.44,35.56-0.44,35.56s15.85-5.23,11.7,14.63
		c0,0,10.28,0.34,4.3,9.52c-5.99,9.19-5.52,13.19-17.35,19.11l-3.53,11.85"/>
	<path class="st14" d="M417.83,398.19c0,0-10.19-1.52-13.08,3.14c-2.89,4.67,2.21,32.44,11.11,32.44
		c8.89,0.01,14.63-14.65,15.11-18.96"/>
	<rect x="338.24" y="405.97" class="st2" width="11.35" height="11.35"/>
	<path class="st14" d="M361.47,226.96c0,0-9.29,15.7-13.49,15.7s-13.49-15.7-13.49-15.7l15.5,2.18l11.72-2.27"/>
	<path class="st2" d="M328.16,193.35c0,0-6.5,1.04-7.99,4.89c0,0-4.75-1.78-10.67,5.04c0,0-16,1.19-11.85,5.04
		c4.15,3.85,48.59,22.22,53.33,20.74c4.74-1.48,48.89-18.37,50.07-20.74c1.19-2.37-1.19-8.3-9.78-6.52c0,0-6.52-7.11-13.04-2.07
		c0,0-3.56-10.96-11.26-8.3c0,0,5.63,17.19-5.04,23.41c-10.67,6.22-17.78,5.04-22.81,1.19
		C334.08,212.17,330.23,213.06,328.16,193.35z"/>
	<path class="st2" d="M336.51,226.26c0,0,9.29,15.7,13.49,15.7s13.49-15.7,13.49-15.7"/>
	<path class="st14" d="M344.8,240.88c0,0-19.92,82.45-18.14,113.56c1.78,31.11,1.78,31.11,1.78,31.11l10.32,6.67l10.69-9.33
		c0,0-10.68-66.22-4.07-88.44c6.61-22.22,7.06-52.48,7.06-52.48"/>
	<path class="st2" d="M343.91,242.67c0,0-20.5,78.67-18.72,109.78c1.78,31.11,1.78,31.11,1.78,31.11l10.32,6.67l10.69-9.33
		c0,0-10.68-66.22-4.07-88.44c6.61-22.22,7.06-49.78,7.06-49.78"/>
	<path class="st2" d="M813.94,718.89c0,0,9.03-114.74-44.75-174c-46.27-50.99-262.02-142.58-281.55-160"/>
	<path class="st2" d="M270.97,440c-32,155.56,82.52,292.22,82.52,292.22s-15.51,2.86-34.79-2.01"/>
	<path class="st2" d="M642.81,612.46c0,0,0.09-17.5-44.73-64.91c-51.99-55-95.11-82.67-101.33-113.78"/>
	<path class="st2" d="M417.83,398.19c0,0-10.19-1.52-13.08,3.14c-2.89,4.67,2.21,32.44,11.11,32.44
		c8.89,0.01,14.63-14.65,15.11-18.96"/>
	<path class="st2" d="M813.94,718.89c0,0,23.88-36.52,24.91-69"/>
	<path class="st2" d="M500,349.51c0,0,34.58,42.31,179.66,100.63c0,0,95.03,43.72,121.83,83.91"/>
	<path class="st2" d="M251.19,373.45c0,0-22.97,128.53-22.67,178.43"/>
	<line class="st2" x1="365" y1="274.37" x2="402.53" y2="274.37"/>
</g>
<g id="Layer_9">
</g>
</svg>
