<?xml version="1.0" encoding="utf-8"?>
<!-- Generator: Adobe Illustrator 24.3.0, SVG Export Plug-In . SVG Version: 6.00 Build 0)  -->
<svg version="1.1" id="Layer_1" xmlns="http://www.w3.org/2000/svg" xmlns:xlink="http://www.w3.org/1999/xlink" x="0px" y="0px"
	 viewBox="0 0 99.35 99.35" style="enable-background:new 0 0 99.35 99.35;" xml:space="preserve">
<style type="text/css">
	.st0{fill:#EFEFEF;}
	.st1{fill:#7778F7;}
	.st2{fill:#4046B5;}
	.st3{fill:#FFFFFF;}
	.st4{fill:#EAEAEA;}
	.st5{fill:#009118;}
	.st6{fill:#FC1515;}
	.st7{fill:#E0E0E0;}
	.st8{fill:#00A651;}
	.st9{fill:#068C42;}
	.st10{fill:#FFCE00;}
	.st11{fill:#DDDDDD;}
	.st12{fill:#FF0000;}
	.st13{fill:none;stroke:#000000;stroke-width:2;stroke-miterlimit:10;}
	.st14{fill:none;stroke:#000000;stroke-miterlimit:10;}
	.st15{fill:none;stroke:#000000;stroke-width:2;stroke-linecap:round;stroke-miterlimit:10;}
	.st16{fill:none;stroke:#000000;stroke-width:2;stroke-linecap:round;stroke-miterlimit:10;stroke-dasharray:4.7778,4.7778;}
	.st17{fill:#FFFFFF;stroke:#000000;stroke-width:2;stroke-linecap:round;stroke-miterlimit:10;}
</style>
<g>
	<circle class="st13" cx="49.46" cy="25.02" r="6.59"/>
	<path class="st13" d="M40.99,30.98l6.9,2.51c2.03,0.7,3.76,3.5,3.76,5.64l-5.61,14.42c-0.56,1.44,0.02,3.08,1.36,3.86l4.15,2.39
		c2.66,1.53,3.99,4.62,3.27,7.6l-2.4,9.91c-0.43,1.79-2.21,2.9-4.01,2.5l0,0c-1.84-0.41-2.99-2.25-2.54-4.09l2.2-8.55
		c0.25-0.97-0.26-1.98-1.19-2.36l-10.91-4.36c-3.76-2.51-3.25-6.26-2.34-8.95l4.34-12.77c0.18-0.54-0.38-1.02-0.88-0.76l-3.9,2.04
		l-4.26,6.75c-0.65,1.04-1.94,1.47-3.09,1.04l0,0c-1.56-0.58-2.16-2.47-1.24-3.85l4.46-6.69c1.62-2.42,4.06-5.03,6.91-5.66
		C35.97,31.61,39.02,30.64,40.99,30.98z"/>
	<path class="st13" d="M30.13,63.19l-0.92,2.57c-0.09,0.23-0.22,0.44-0.39,0.62l-8.26,8.74c-1.18,1.25-1.1,3.22,0.18,4.36l0,0
		c1.17,1.05,2.94,1.04,4.1-0.02l10.91-10.02c0.15-0.13,0.27-0.29,0.37-0.46l3.01-6.79"/>
	<path class="st15" d="M51.95,39.84l3.02,5.11c0.45,0.77,1.29,1.24,2.18,1.23l9.49-0.08c1.79,0.04,3.06,1.75,2.59,3.47l0,0
		c-0.31,1.11-1.27,1.91-2.42,2l-12.87,1.06c-0.91,0.08-1.8-0.36-2.3-1.12l-2.38-3.62"/>
	<polyline class="st15" points="60.79,31.61 73.15,31.61 73.15,29.39 81.13,35.37 73.6,41.01 73.6,39.13 57.3,39.13 	"/>
</g>
</svg>
