<svg xmlns="http://www.w3.org/2000/svg" viewBox="0 0 50 50"><g id="Layer_3" data-name="Layer 3"><path d="M15.77,25A9.23,9.23,0,1,1,25,34.24,9.21,9.21,0,0,1,15.77,25ZM25,31a6,6,0,1,0-6-6A6,6,0,0,0,25,31Z"/><path d="M34.62,13.27a2.12,2.12,0,0,1,2.13,2.14,2.15,2.15,0,1,1-2.13-2.14Z"/></g><g id="Layer_5" data-name="Layer 5"><path d="M24.9,43.19c-3.49,0-7,.05-10.46,0a7.78,7.78,0,0,1-7.62-7.62c-.06-3,0-6,0-9,0-3.86,0-7.72,0-11.58a7.81,7.81,0,0,1,5.48-7.59A8.6,8.6,0,0,1,14.7,7c6.8,0,13.6,0,20.39,0A7.86,7.86,0,0,1,43,14a7.18,7.18,0,0,1,0,1V35.14a7.82,7.82,0,0,1-5.74,7.74,10,10,0,0,1-2.5.31c-3.29,0-6.57,0-9.86,0Zm0-34.35h-10a6.23,6.23,0,0,0-1.15.08A6,6,0,0,0,8.63,15q0,10.08,0,20.17a7.38,7.38,0,0,0,.17,1.48A6.06,6.06,0,0,0,15,41.37H34.83a7.2,7.2,0,0,0,1.23-.09,6,6,0,0,0,5.1-6.08q0-10.11,0-20.21a6.66,6.66,0,0,0-.31-2A6,6,0,0,0,35,8.84Z"/></g><g id="Layer_6" data-name="Layer 6"><path d="M24.9,43.19c-3.49,0-7,.05-10.46,0a7.78,7.78,0,0,1-7.62-7.62c-.06-3,0-6,0-9,0-3.86,0-7.72,0-11.58a7.81,7.81,0,0,1,5.48-7.59A8.6,8.6,0,0,1,14.7,7c6.8,0,13.6,0,20.39,0A7.86,7.86,0,0,1,43,14a7.18,7.18,0,0,1,0,1V35.14a7.82,7.82,0,0,1-5.74,7.74,10,10,0,0,1-2.5.31c-3.29,0-6.57,0-9.86,0Zm0-34.35h-10a6.23,6.23,0,0,0-1.15.08A6,6,0,0,0,8.63,15q0,10.08,0,20.17a7.38,7.38,0,0,0,.17,1.48A6.06,6.06,0,0,0,15,41.37H34.83a7.2,7.2,0,0,0,1.23-.09,6,6,0,0,0,5.1-6.08q0-10.11,0-20.21a6.66,6.66,0,0,0-.31-2A6,6,0,0,0,35,8.84Z"/></g></svg>