<?xml version="1.0" encoding="utf-8"?>
<!-- Generator: Adobe Illustrator 24.3.0, SVG Export Plug-In . SVG Version: 6.00 Build 0)  -->
<svg version="1.1" id="Layer_1" xmlns="http://www.w3.org/2000/svg" xmlns:xlink="http://www.w3.org/1999/xlink" x="0px" y="0px"
	 viewBox="0 0 27 27" style="enable-background:new 0 0 27 27;" xml:space="preserve">
<style type="text/css">
	.st0{fill:none;stroke:#FFFFFF;stroke-width:2;stroke-linecap:round;stroke-miterlimit:10;}
	.st1{fill:none;stroke:#FFFFFF;stroke-width:2;stroke-miterlimit:10;}
</style>
<polyline class="st0" points="6.38,12.19 11.66,6.91 16.22,9.07 21.26,4.03 "/>
<path class="st1" d="M5.95,18.67h1.35c0.29,0,0.53,0.24,0.53,0.53v2.54c0,0.29-0.24,0.53-0.53,0.53H5.95
	c-0.29,0-0.53-0.24-0.53-0.53v-2.54C5.42,18.9,5.65,18.67,5.95,18.67z"/>
<path class="st1" d="M10.7,13.39h1.83c0.29,0,0.53,0.24,0.53,0.53v7.83c0,0.29-0.24,0.53-0.53,0.53H10.7
	c-0.29,0-0.53-0.24-0.53-0.53v-7.83C10.18,13.62,10.41,13.39,10.7,13.39z"/>
<path class="st1" d="M15.82,15.55h1.59c0.29,0,0.53,0.24,0.53,0.53v5.67c0,0.29-0.24,0.53-0.53,0.53h-1.59
	c-0.29,0-0.53-0.24-0.53-0.53v-5.67C15.3,15.78,15.53,15.55,15.82,15.55z"/>
<path class="st1" d="M20.82,9.31h1.59c0.29,0,0.53,0.24,0.53,0.53V21.5c0,0.29-0.24,0.53-0.53,0.53h-1.59
	c-0.29,0-0.53-0.24-0.53-0.53V9.83C20.3,9.54,20.53,9.31,20.82,9.31z"/>
</svg>
