<svg id="Layer_5" data-name="Layer 5" xmlns="http://www.w3.org/2000/svg" viewBox="0 0 50 50"><path d="M24.9,43.19c-3.49,0-7,.05-10.46,0a7.78,7.78,0,0,1-7.62-7.62c-.06-3,0-6,0-9,0-3.86,0-7.72,0-11.58a7.81,7.81,0,0,1,5.48-7.59A8.6,8.6,0,0,1,14.7,7c6.8,0,13.6,0,20.39,0A7.86,7.86,0,0,1,43,14a7.18,7.18,0,0,1,0,1V35.14a7.82,7.82,0,0,1-5.74,7.74,10,10,0,0,1-2.5.31c-3.29,0-6.57,0-9.86,0Zm0-34.35h-10a6.23,6.23,0,0,0-1.15.08A6,6,0,0,0,8.63,15q0,10.08,0,20.17a7.38,7.38,0,0,0,.17,1.48A6.06,6.06,0,0,0,15,41.37H34.83a7.2,7.2,0,0,0,1.23-.09,6,6,0,0,0,5.1-6.08q0-10.11,0-20.21a6.66,6.66,0,0,0-.31-2A6,6,0,0,0,35,8.84Z"/><path d="M26.28,21.91l4.4-5.49c.77-1,1.55-1.92,2.32-2.89a.94.94,0,0,1,.93-.42.92.92,0,0,1,.54,1.53c-.6.77-1.21,1.52-1.82,2.28l-5,6.17a.38.38,0,0,0,0,.59q4.71,5.85,9.4,11.71a1.66,1.66,0,0,1,.35.6c.15.62-.31,1.11-1,1.12H31.27a1.24,1.24,0,0,1-1.09-.52q-3.19-4-6.4-8l-.26-.3-2,2.45-4.65,5.8a2.73,2.73,0,0,1-.27.31.9.9,0,0,1-1.17,0,.91.91,0,0,1-.25-1.17,4,4,0,0,1,.24-.33q3.31-4.14,6.65-8.27a.43.43,0,0,0,0-.65q-4.71-5.85-9.4-11.71a1.7,1.7,0,0,1-.32-.57.9.9,0,0,1,.93-1.12h5.41a1.08,1.08,0,0,1,.88.49q3,3.81,6.1,7.6C25.87,21.42,26.06,21.65,26.28,21.91Zm8.33,13.35-.29-.37-2.1-2.62L18.53,15.2a.62.62,0,0,0-.57-.27H15.57l-.37,0c.17.2.29.36.41.51l3.23,4Q25.07,27.27,31.3,35c.08.1.2.23.31.23C32.58,35.27,33.54,35.26,34.61,35.26Z"/></svg>