<?xml version="1.0" encoding="utf-8"?>
<!-- Generator: Adobe Illustrator 24.3.0, SVG Export Plug-In . SVG Version: 6.00 Build 0)  -->
<svg version="1.1" id="Layer_1" xmlns="http://www.w3.org/2000/svg" xmlns:xlink="http://www.w3.org/1999/xlink" x="0px" y="0px"
	 viewBox="0 0 99.35 99.35" style="enable-background:new 0 0 99.35 99.35;" xml:space="preserve">
<style type="text/css">
	.st0{fill:#EFEFEF;}
	.st1{fill:#7778F7;}
	.st2{fill:#4046B5;}
	.st3{fill:#FFFFFF;}
	.st4{fill:#EAEAEA;}
	.st5{fill:#009118;}
	.st6{fill:#FC1515;}
	.st7{fill:#E0E0E0;}
	.st8{fill:#00A651;}
	.st9{fill:#068C42;}
	.st10{fill:#FFCE00;}
	.st11{fill:#DDDDDD;}
	.st12{fill:#FF0000;}
	.st13{fill:none;stroke:#000000;stroke-width:2;stroke-miterlimit:10;}
	.st14{fill:none;stroke:#000000;stroke-miterlimit:10;}
	.st15{fill:none;stroke:#000000;stroke-width:2;stroke-linecap:round;stroke-miterlimit:10;}
	.st16{fill:none;stroke:#000000;stroke-width:2;stroke-linecap:round;stroke-miterlimit:10;stroke-dasharray:4.7778,4.7778;}
	.st17{fill:#FFFFFF;stroke:#000000;stroke-width:2;stroke-linecap:round;stroke-miterlimit:10;}
</style>
<path class="st13" d="M65.98,66.69l8.75,11.55c1.18,1.61,3.45,1.94,5.05,0.75l0,0c1.52-1.13,1.9-3.25,0.87-4.84l-7.67-11.46"/>
<path class="st13" d="M63.47,69.93v7.23c0,2.21-1.79,4-4,4H21.48c-2.21,0-4-1.79-4-4V32.74c0-1.07,0.43-2.1,1.2-2.85l6.3-6.2
	l4.7-4.61c0.75-0.73,1.75-1.14,2.8-1.14h26.98c2.21,0,4,1.79,4,4v12.44"/>
<path class="st13" d="M28.97,19.7c0.3-0.3,0.81-0.1,0.82,0.33l0.17,4.96l0.19,5.56c0.01,0.28-0.22,0.51-0.88,0.49l-5.56-0.19
	l-4.58-0.16c-0.42-0.01-0.62-0.53-0.33-0.82"/>
<circle class="st13" cx="61.55" cy="52.42" r="15.33"/>
<g>
	<g>
		<line class="st15" x1="51.81" y1="52.42" x2="54.31" y2="52.42"/>
		<line class="st16" x1="59.09" y1="52.42" x2="66.26" y2="52.42"/>
		<line class="st15" x1="68.65" y1="52.42" x2="71.15" y2="52.42"/>
	</g>
</g>
<line class="st17" x1="21.48" y1="37.69" x2="41.48" y2="37.69"/>
<line class="st17" x1="21.48" y1="43.94" x2="41.48" y2="43.94"/>
<line class="st17" x1="21.48" y1="50.19" x2="41.48" y2="50.19"/>
<line class="st17" x1="21.48" y1="56.44" x2="41.48" y2="56.44"/>
<line class="st17" x1="21.48" y1="62.69" x2="43.48" y2="62.69"/>
<line class="st17" x1="21.48" y1="68.94" x2="48.48" y2="68.94"/>
<line class="st17" x1="21.48" y1="75.19" x2="48.48" y2="75.19"/>
</svg>
