<?xml version="1.0" encoding="utf-8"?>
<!-- Generator: Adobe Illustrator 24.3.0, SVG Export Plug-In . SVG Version: 6.00 Build 0)  -->
<svg version="1.1" id="Layer_1" xmlns="http://www.w3.org/2000/svg" xmlns:xlink="http://www.w3.org/1999/xlink" x="0px" y="0px"
	 viewBox="0 0 99.35 99.35" style="enable-background:new 0 0 99.35 99.35;" xml:space="preserve">
<style type="text/css">
	.st0{fill:#EFEFEF;}
	.st1{fill:#7778F7;}
	.st2{fill:#4046B5;}
	.st3{fill:#FFFFFF;}
	.st4{fill:#EAEAEA;}
	.st5{fill:#009118;}
	.st6{fill:#FC1515;}
	.st7{fill:#E0E0E0;}
	.st8{fill:#00A651;}
	.st9{fill:#068C42;}
	.st10{fill:#FFCE00;}
	.st11{fill:#DDDDDD;}
	.st12{fill:#FF0000;}
	.st13{fill:none;stroke:#000000;stroke-width:2;stroke-miterlimit:10;}
	.st14{fill:none;stroke:#000000;stroke-miterlimit:10;}
	.st15{fill:none;stroke:#000000;stroke-width:2;stroke-linecap:round;stroke-miterlimit:10;}
	.st16{fill:none;stroke:#000000;stroke-width:2;stroke-linecap:round;stroke-miterlimit:10;stroke-dasharray:4.7778,4.7778;}
	.st17{fill:#FFFFFF;stroke:#000000;stroke-width:2;stroke-linecap:round;stroke-miterlimit:10;}
</style>
<g>
	<path class="st13" d="M32.51,33.38V21.12c0-1.62,1.31-2.93,2.93-2.93h46.22c1.62,0,2.93,1.31,2.93,2.93v33.75
		c0,1.62-1.31,2.93-2.93,2.93H67.6"/>
	<circle class="st13" cx="36.92" cy="43.87" r="6.97"/>
	<path class="st13" d="M30.68,50.1L30.68,50.1c-3.63,0.45-6.75,2.81-8.19,6.17l-6.41,15.5c-0.65,1.52,0.05,3.28,1.56,3.94l0,0
		c1.91,0.84,4.13-0.09,4.89-2.03l4.48-11.84v14.67c0,2.03,1.64,3.67,3.67,3.67h12.78c1.98,0,3.61-1.58,3.67-3.56l0.43-14.78
		l4.86,8.5c0.5,0.87,1.7,1,2.37,0.25l9.18-10.25c1.06-1.18,0.93-3.01-0.29-4.02l0,0c-1.2-1-2.98-0.83-3.96,0.38l-4.81,5.88
		l-4.76-7.14c-1.67-2.5-4.12-4.38-6.98-5.33l0,0"/>
	<path class="st13" d="M53.42,37.14v-8.66c0-0.56,0.61-0.92,1.1-0.64l7.5,4.33l7.5,4.33c0.49,0.28,0.49,0.99,0,1.27l-7.5,4.33
		l-7.5,4.33c-0.49,0.28-1.1-0.07-1.1-0.64V37.14z"/>
</g>
</svg>
